<svg xmlns="http://www.w3.org/2000/svg" xmlns:xlink="http://www.w3.org/1999/xlink" viewBox="0 0 300.89 297.91"><defs><style>.cls-1{fill:url(#名称未設定グラデーション_207);}.cls-2{fill:#fff;}.cls-3{fill:url(#名称未設定グラデーション_147);}</style><linearGradient id="名称未設定グラデーション_207" x1="151.77" y1="-273.85" x2="190.03" y2="-41.87" gradientTransform="translate(-36.54 318.19) rotate(6.22)" gradientUnits="userSpaceOnUse"><stop offset="0" stop-color="#4089b9" stop-opacity="0.9"/><stop offset="0.43" stop-color="#4089b9" stop-opacity="0.89"/><stop offset="0.6" stop-color="#4089b9" stop-opacity="0.85"/><stop offset="0.73" stop-color="#4089b9" stop-opacity="0.79"/><stop offset="0.83" stop-color="#4089b9" stop-opacity="0.69"/><stop offset="0.91" stop-color="#4089b9" stop-opacity="0.57"/><stop offset="0.99" stop-color="#4089b9" stop-opacity="0.42"/><stop offset="1" stop-color="#4089b9" stop-opacity="0.4"/></linearGradient><linearGradient id="名称未設定グラデーション_147" x1="150.45" x2="150.45" y2="235.56" gradientUnits="userSpaceOnUse"><stop offset="0.31" stop-color="#ea5e79"/><stop offset="0.45" stop-color="#e85f7a" stop-opacity="0.99"/><stop offset="0.55" stop-color="#e2627e" stop-opacity="0.96"/><stop offset="0.65" stop-color="#d76885" stop-opacity="0.92"/><stop offset="0.74" stop-color="#c7708e" stop-opacity="0.85"/><stop offset="0.82" stop-color="#b47a9a" stop-opacity="0.77"/><stop offset="0.9" stop-color="#9b86a9" stop-opacity="0.67"/><stop offset="0.97" stop-color="#7f94ba" stop-opacity="0.55"/><stop offset="1" stop-color="#749ac1" stop-opacity="0.5"/></linearGradient></defs><title>mechanism1</title><g id="レイヤー_2" data-name="レイヤー 2"><g id="_2" data-name="ﾒｶﾆｽﾞﾑｲﾗｽﾄ2"><path class="cls-1" d="M299.16,189.77c7.12-43.39-31.49-81.55-86.24-85.23a127,127,0,0,0-21.49.38,49.6,49.6,0,0,1,7.75-6.13c21.88-14,53.27-11.93,70.11,4.72C235.61,70.22,172.84,66,129.08,94.08a99.52,99.52,0,0,0-15.54,12.25,31.72,31.72,0,0,1,.24-8.46c3.56-21.7,28.64-37.79,56-35.95-54.75-3.69-104.92,28.51-112,71.9a62.41,62.41,0,0,0-.48,17,44,44,0,0,1-7.43-5.85C33,128.28,37.1,103.4,59,89.36,15.22,117.44,7.05,167.19,40.73,200.48a86.82,86.82,0,0,0,14.86,11.71,64,64,0,0,1-10.74.2c-27.37-1.84-46.68-20.93-43.12-42.62C-5.39,213.16,33.22,251.32,88,255a127,127,0,0,0,21.49-.38,50.2,50.2,0,0,1-7.75,6.13c-21.88,14-53.26,11.93-70.1-4.72,33.67,33.29,96.45,37.51,140.2,9.43a99.18,99.18,0,0,0,15.54-12.25,30.91,30.91,0,0,1-.24,8.46c-3.56,21.7-28.64,37.79-56,35.95,54.76,3.69,104.92-28.51,112-71.9a63.22,63.22,0,0,0,.48-16.95,44,44,0,0,1,7.42,5.85c16.84,16.64,12.75,41.52-9.12,55.56,43.75-28.08,51.92-77.83,18.24-111.12a86.74,86.74,0,0,0-14.85-11.71,63.85,63.85,0,0,1,10.73-.2C283.42,149,302.72,168.08,299.16,189.77Zm-137-7.83c-.06.17-.12.34-.19.5a3.88,3.88,0,0,1-.22.46c-.07.15-.13.29-.21.43a1.63,1.63,0,0,1-.11.17c0,.09-.11.18-.17.27s-.17.28-.27.42-.2.26-.31.4-.21.28-.33.41-.24.25-.35.37l-.39.4-.45.38-.38.32c-.29.23-.6.44-.92.65s-.65.4-1,.58l-.47.22c-.19.09-.38.19-.57.27s-.38.15-.57.22l-.52.19c-.19.07-.39.12-.59.18s-.36.11-.55.15l-.57.12-.37.08-.23,0c-.19,0-.38.05-.57.08s-.41.06-.61.07l-.65,0-.55,0q-.58,0-1.2,0h0c-.4,0-.79-.07-1.18-.13-.18,0-.35-.06-.53-.09l-.62-.12-.58-.16c-.18,0-.36-.09-.53-.15l-.55-.2c-.17-.06-.35-.12-.51-.19l-.5-.23-.51-.24-.45-.27-.18-.1-.31-.18L142,187l-.2-.15-.18-.14a8.67,8.67,0,0,1-.79-.69,9.72,9.72,0,0,1-.68-.76c-.1-.11-.18-.24-.27-.36s-.22-.29-.31-.44-.17-.29-.25-.44-.16-.26-.23-.4-.13-.3-.19-.45-.13-.29-.18-.43-.08-.3-.12-.45a2.45,2.45,0,0,1-.08-.29,1.21,1.21,0,0,1-.05-.18c0-.14,0-.29-.07-.44s0-.32-.07-.49,0-.34,0-.51,0-.28,0-.42a6.13,6.13,0,0,1,.1-.95,7.13,7.13,0,0,1,.21-.94c0-.14.1-.28.15-.42s.11-.34.18-.5.15-.31.22-.46l.21-.43.28-.44c.09-.14.17-.28.27-.42s.21-.26.31-.4.22-.28.34-.41.23-.25.35-.37.25-.27.39-.4.3-.26.45-.38.24-.22.37-.32c.29-.23.6-.44.92-.65s.65-.4,1-.58l.47-.22.57-.27.57-.22.53-.19c.19-.07.38-.12.58-.18l.55-.15c.19-.05.38-.08.57-.12s.4-.09.6-.12a5.58,5.58,0,0,1,.57-.08c.21,0,.41-.06.62-.07l.65,0,.54,0q.6,0,1.2,0c.4,0,.8.07,1.18.13.18,0,.35.06.53.09l.62.12.58.16c.18.05.36.09.53.15l.55.2.52.19.49.23.51.24c.16.08.3.18.45.26l.49.29.47.34.39.29a8.37,8.37,0,0,1,.78.69,8,8,0,0,1,.68.76,1.09,1.09,0,0,1,.13.17l.14.19a4.37,4.37,0,0,1,.31.44c.06.09.11.18.16.27l.09.16c.08.14.16.27.23.41s.13.3.19.45.13.29.18.43.08.3.13.45.09.31.12.47.05.29.07.44a3.85,3.85,0,0,1,.07.49c0,.16,0,.34,0,.51a3,3,0,0,1,0,.42,7.63,7.63,0,0,1-.09,1,9.21,9.21,0,0,1-.22.94C162.28,181.66,162.22,181.8,162.18,181.94Z"/><path class="cls-2" d="M255,41c.62.46,1.26.91,1.87,1.39C256.22,41.88,255.59,41.42,255,41Z"/><path class="cls-2" d="M45.94,202.46c-.63-.47-1.26-.92-1.88-1.4C44.68,201.54,45.3,202,45.94,202.46Z"/><path class="cls-2" d="M300.89,117.78c0-43.36-44.9-78.52-100.29-78.52q-5.57,0-11,.47c19-12.22,46.89-11.81,65.34,1.24V33.1C215.66,3.86,153.54,4.31,115,34.5a85.92,85.92,0,0,0-13.54,13.14,34,34,0,0,1-.9-4.51c2.56-19.81,23.92-35.27,49.9-35.27V0C95.05,0,50.15,35.15,50.15,78.52c0,1.3.05,2.6.13,3.89-.09,1.31-.13,2.64-.13,4a62.06,62.06,0,0,0,.52,8A50.19,50.19,0,0,1,44.06,90c-8.51-6.67-13.32-15.13-14.43-23.83,1-8.07,5.25-15.95,12.66-22.36V36C22.67,52.12,13.5,73.19,14.82,94c-1.36,21.39,8.38,43.12,29.24,59.46,1.62,1.26,3.29,2.45,5,3.61-27.18-.47-49-17.85-49-39.24v7.86C0,169,44.9,204.17,100.3,204.17q5.57,0,11-.47c-19,12.22-46.89,11.8-65.33-1.24v7.86c39.29,29.24,101.41,28.79,140-1.39a86.34,86.34,0,0,0,13.53-13.15,32.72,32.72,0,0,1,.9,4.51c-2.56,19.81-23.92,35.27-49.89,35.27v7.87c55.39,0,100.29-35.16,100.29-78.52,0-1.31,0-2.6-.12-3.89.08-1.32.12-2.65.12-4a61.91,61.91,0,0,0-.52-8,48.58,48.58,0,0,1,6.61,4.34c8.51,6.66,13.32,15.13,14.43,23.82-1,8.08-5.25,16-12.65,22.37v7.86c19.61-16.15,28.79-37.23,27.46-58,1.37-21.38-8.38-43.12-29.24-59.45q-2.43-1.89-5-3.61c27.19.46,49,17.84,49,39.23Zm-139.3,3.93-.09.15c-.09.14-.17.29-.27.43s-.19.26-.29.39l-.32.42c-.12.14-.26.27-.39.41l-.32.34c-.26.24-.53.48-.81.7s-.59.44-.9.64c-.14.09-.29.17-.44.25s-.34.21-.52.3l-.54.26-.49.23-.55.2-.53.2c-.18.06-.37.1-.55.15l-.36.1-.22.06-.56.12-.6.11-.65.08-.54.06c-.39,0-.8,0-1.2,0h0c-.41,0-.81,0-1.21,0l-.54-.06-.64-.08-.61-.11c-.18,0-.37-.07-.55-.12s-.39-.1-.59-.16-.37-.09-.54-.15l-.53-.2-.56-.2-.49-.23-.2-.1a3.36,3.36,0,0,1-.33-.16c-.19-.09-.36-.2-.53-.3l-.23-.13-.21-.12c-.3-.2-.6-.41-.89-.64a9.26,9.26,0,0,1-.81-.7c-.12-.11-.22-.23-.33-.34l-.39-.41-.32-.42c-.1-.13-.2-.25-.29-.39s-.18-.29-.27-.43l-.08-.15s.05-.1.08-.14.17-.3.27-.44l.29-.39c.11-.14.21-.28.32-.41l.39-.42c.11-.11.21-.23.33-.33a9.35,9.35,0,0,1,.81-.71c.29-.22.59-.43.89-.63.14-.09.29-.17.44-.25s.34-.21.53-.31l.53-.25.49-.23c.18-.08.37-.14.56-.21l.53-.19.54-.16.59-.16.55-.11.61-.12.64-.07c.18,0,.36-.05.54-.06.4,0,.8-.05,1.21-.05s.81,0,1.2.05c.18,0,.36,0,.54.06l.65.07.6.12.56.11.58.16.55.16.53.19c.18.07.37.13.55.21l.49.23c.18.08.37.16.54.25l.52.3.44.26q.47.3.9.63c.28.23.55.46.81.71l.15.16c.06.06.11.12.17.17s.27.28.39.42.13.17.2.26l.12.15.29.39c.1.14.18.29.27.44Z"/><path class="cls-2" d="M255,33.1c.62.47,1.26.92,1.87,1.4C256.22,34,255.59,33.55,255,33.1Z"/><path class="cls-3" d="M300.89,117.78c0-43.36-44.9-78.52-100.29-78.52a128.54,128.54,0,0,0-21.45,1.8,43.06,43.06,0,0,1,6.76-6.56c19.58-15.33,51.33-15.33,70.92,0C217.66,3.83,154.15,3.83,115,34.5a85.92,85.92,0,0,0-13.54,13.14,31.22,31.22,0,0,1-1.15-8.38C100.3,17.58,122.75,0,150.45,0,95.05,0,50.15,35.15,50.15,78.52a62.71,62.71,0,0,0,2.3,16.79A50.91,50.91,0,0,1,44.06,90c-19.58-15.33-19.58-40.19,0-55.52-39.16,30.66-39.16,80.38,0,111a100.09,100.09,0,0,0,16.8,10.59,63.69,63.69,0,0,1-10.71.91C22.45,157,0,139.46,0,117.78c0,43.37,44.9,78.52,100.3,78.52a128.41,128.41,0,0,0,21.44-1.8,43,43,0,0,1-6.75,6.56c-19.59,15.34-51.34,15.34-70.93,0,39.17,30.67,102.68,30.67,141.85,0a85.85,85.85,0,0,0,13.53-13.14,31.22,31.22,0,0,1,1.16,8.38c0,21.68-22.46,39.26-50.15,39.26,55.39,0,100.29-35.15,100.29-78.52a62.58,62.58,0,0,0-2.3-16.78,50.2,50.2,0,0,1,8.39,5.28c19.58,15.33,19.58,40.19,0,55.52,39.17-30.66,39.17-80.38,0-111A100.65,100.65,0,0,0,240,79.43a63.48,63.48,0,0,1,10.7-.91C278.44,78.52,300.89,96.1,300.89,117.78Zm-138.35,1.37c0,.16-.06.34-.1.5s-.1.32-.15.48a3.59,3.59,0,0,1-.14.43.89.89,0,0,1-.08.17L162,121l-.2.42-.25.42c-.09.14-.17.29-.27.43s-.19.26-.29.39l-.32.42c-.12.14-.26.27-.39.41l-.32.34c-.26.24-.53.48-.81.7s-.59.44-.9.64c-.14.09-.29.17-.44.25s-.34.21-.52.3l-.54.26-.49.23-.55.2-.53.2c-.18.06-.37.1-.55.15l-.36.1-.22.06-.56.12-.6.11-.65.08-.54.06c-.39,0-.8,0-1.2,0h0c-.41,0-.81,0-1.21,0l-.54-.06-.64-.08-.61-.11c-.18,0-.37-.07-.55-.12s-.39-.1-.59-.16-.37-.09-.54-.15l-.53-.2-.56-.2-.49-.23-.2-.1a3.36,3.36,0,0,1-.33-.16c-.19-.09-.36-.2-.53-.3l-.23-.13-.21-.12c-.3-.2-.6-.41-.89-.64a9.26,9.26,0,0,1-.81-.7c-.12-.11-.22-.23-.33-.34l-.39-.41-.32-.42c-.1-.13-.2-.25-.29-.39s-.18-.29-.27-.43-.17-.28-.24-.42a4,4,0,0,1-.2-.42c0-.1-.09-.19-.13-.29l-.08-.17c-.05-.14-.09-.29-.14-.43s-.11-.32-.15-.48-.07-.34-.1-.5-.06-.28-.07-.42a7.59,7.59,0,0,1-.07-1,7.3,7.3,0,0,1,.07-.94c0-.15.05-.28.07-.42s.06-.34.1-.51.1-.32.15-.47.09-.3.14-.44.14-.3.21-.45a3.36,3.36,0,0,1,.2-.43c.07-.14.16-.28.24-.42s.17-.29.27-.43l.29-.39.32-.42.39-.41c.11-.11.21-.23.33-.34s.52-.47.81-.7a10.32,10.32,0,0,1,.89-.63l.44-.26c.17-.1.34-.21.53-.3l.53-.25.49-.23c.18-.08.37-.14.56-.21l.53-.2.54-.15c.2-.06.39-.12.59-.16a5.35,5.35,0,0,1,.55-.11c.2,0,.4-.09.61-.12l.64-.08.54-.06c.4,0,.8,0,1.21,0s.81,0,1.2,0l.54.06.65.08c.2,0,.4.08.6.12a5.54,5.54,0,0,1,.56.11c.19,0,.38.1.58.16l.55.15.53.2c.18.07.37.13.55.21l.49.22.54.26c.18.09.35.2.52.3l.44.26a9.1,9.1,0,0,1,.9.63c.28.23.55.46.81.7l.15.17.17.17c.13.14.27.27.39.41l.2.27.12.15.29.39c.1.14.18.29.27.43l.25.42c.07.14.13.28.2.43s.14.3.2.45a3.22,3.22,0,0,1,.14.44c.05.15.11.31.15.47s.07.34.1.51.06.27.08.42a7.3,7.3,0,0,1,.06.94,7.57,7.57,0,0,1-.06,1C162.6,118.87,162.56,119,162.54,119.15Z"/></g></g></svg>