<svg xmlns="http://www.w3.org/2000/svg" xmlns:xlink="http://www.w3.org/1999/xlink" viewBox="0 0 362.54 362.16"><defs><style>.cls-1{fill:url(#名称未設定グラデーション_209);}.cls-2{fill:url(#名称未設定グラデーション_209-2);}.cls-3{fill:#fff;}.cls-4{fill:url(#名称未設定グラデーション_217);}.cls-5{fill:url(#名称未設定グラデーション_209-3);}.cls-6{fill:url(#名称未設定グラデーション_217-2);}.cls-7{fill:url(#名称未設定グラデーション_209-4);}.cls-8{fill:url(#名称未設定グラデーション_217-3);}.cls-9{fill:url(#名称未設定グラデーション_209-5);}.cls-10{fill:url(#名称未設定グラデーション_228);}.cls-11{fill:url(#名称未設定グラデーション_196);}</style><linearGradient id="名称未設定グラデーション_209" x1="259.08" y1="49.74" x2="259.08" y2="375.26" gradientTransform="matrix(1.13, 0.08, -0.07, 0.98, -10.24, -20.69)" gradientUnits="userSpaceOnUse"><stop offset="0" stop-color="#787878" stop-opacity="0.9"/><stop offset="0.48" stop-color="#787878" stop-opacity="0.88"/><stop offset="0.66" stop-color="#787878" stop-opacity="0.83"/><stop offset="0.8" stop-color="#787878" stop-opacity="0.72"/><stop offset="0.91" stop-color="#787878" stop-opacity="0.58"/><stop offset="1" stop-color="#787878" stop-opacity="0.4"/></linearGradient><linearGradient id="名称未設定グラデーション_209-2" x1="299.36" y1="-186.49" x2="318.56" y2="-70.05" gradientTransform="translate(-35.91 368.1) rotate(6.22)" xlink:href="#名称未設定グラデーション_209"/><linearGradient id="名称未設定グラデーション_217" x1="285.13" y1="183.81" x2="285.13" y2="302.06" gradientUnits="userSpaceOnUse"><stop offset="0.31" stop-color="#4089b9"/><stop offset="0.49" stop-color="#428ab9" stop-opacity="0.98"/><stop offset="0.63" stop-color="#478bba" stop-opacity="0.93"/><stop offset="0.75" stop-color="#518fbc" stop-opacity="0.84"/><stop offset="0.87" stop-color="#5e93be" stop-opacity="0.71"/><stop offset="0.98" stop-color="#7099c0" stop-opacity="0.54"/><stop offset="1" stop-color="#749ac1" stop-opacity="0.5"/></linearGradient><linearGradient id="名称未設定グラデーション_209-3" x1="56.44" y1="-280.03" x2="69.55" y2="-200.52" gradientTransform="translate(-35.91 368.1) rotate(6.22)" xlink:href="#名称未設定グラデーション_209"/><linearGradient id="名称未設定グラデーション_217-2" x1="52.74" y1="74.45" x2="52.74" y2="155.19" xlink:href="#名称未設定グラデーション_217"/><linearGradient id="名称未設定グラデーション_209-4" x1="110.48" y1="-177.27" x2="126.75" y2="-78.63" gradientTransform="translate(-35.91 368.1) rotate(6.22)" xlink:href="#名称未設定グラデーション_209"/><linearGradient id="名称未設定グラデーション_217-3" x1="95.87" y1="177.32" x2="95.87" y2="277.48" xlink:href="#名称未設定グラデーション_217"/><linearGradient id="名称未設定グラデーション_209-5" x1="206.45" y1="-333.82" x2="228.95" y2="-197.39" gradientTransform="translate(-35.91 368.1) rotate(6.22)" xlink:href="#名称未設定グラデーション_209"/><linearGradient id="名称未設定グラデーション_228" x1="209.28" y1="21.91" x2="209.28" y2="160.45" gradientUnits="userSpaceOnUse"><stop offset="0.35" stop-color="#ea5e79"/><stop offset="0.43" stop-color="#e55f7b" stop-opacity="0.99"/><stop offset="0.53" stop-color="#d86380" stop-opacity="0.98"/><stop offset="0.63" stop-color="#c26888" stop-opacity="0.95"/><stop offset="0.74" stop-color="#a37094" stop-opacity="0.92"/><stop offset="0.86" stop-color="#7b7aa3" stop-opacity="0.87"/><stop offset="0.98" stop-color="#4b86b5" stop-opacity="0.81"/><stop offset="1" stop-color="#4089b9" stop-opacity="0.8"/></linearGradient><linearGradient id="名称未設定グラデーション_196" x1="256.21" y1="98.65" x2="427.94" y2="4058.88" gradientTransform="matrix(1.13, 0.08, -0.07, 0.98, -10.24, -20.69)" gradientUnits="userSpaceOnUse"><stop offset="0.59" stop-color="#ea5e79"/><stop offset="0.64" stop-color="#d16b88"/><stop offset="0.74" stop-color="#ab7e9f"/><stop offset="0.79" stop-color="#9d85a8"/><stop offset="1" stop-color="#8eb9d6"/></linearGradient></defs><title>mechanism2</title><g id="レイヤー_2" data-name="レイヤー 2"><g id="_2" data-name="ﾒｶﾆｽﾞﾑｲﾗｽﾄ2"><path class="cls-1" d="M230.5,46.19a203.26,203.26,0,0,1,34.74,2.46,171.71,171.71,0,0,1,33.61,8.62A120.19,120.19,0,0,1,329,73.48a92,92,0,0,1,22.33,24.15A75.91,75.91,0,0,1,362,127a33,33,0,0,1,.36,3.84c.07,1.29.2,2.57.22,3.85l-.1,3.86-.06,1.92-.23,1.91-.48,3.83c-.22,1.27-.54,2.52-.81,3.78a59.58,59.58,0,0,1-2.2,7.43,12.18,12.18,0,0,1-.72,1.81l-.8,1.79-.8,1.79a13.08,13.08,0,0,1-.89,1.75,60.35,60.35,0,0,1-4.18,6.74,69.8,69.8,0,0,1-5,6.25,79.81,79.81,0,0,1-5.87,5.61c-2,1.84-4.24,3.42-6.4,5.08s-4.51,3.1-6.89,4.48-4.77,2.72-7.18,4.05-4.89,2.5-7.42,3.61c-10,4.63-20.37,8.42-30.72,12.08s-20.76,7.12-30.95,10.93a244,244,0,0,0-29.55,13,131.7,131.7,0,0,0-13.5,8.19c-2.09,1.54-4.24,3-6.18,4.71s-3.87,3.37-5.74,5.11c-7.19,7.18-13.52,15.22-17.38,24.19a51.71,51.71,0,0,0-3.94,28.4A83,83,0,0,0,178,321.31c1.57,4.72,3.18,9.44,5.07,14.06a154.44,154.44,0,0,0,14.2,26.79,156.2,156.2,0,0,1-14.92-26.57c-2-4.62-3.75-9.31-5.45-14A85.49,85.49,0,0,1,173,307.16a53.16,53.16,0,0,1,3.3-29.28,65.56,65.56,0,0,1,3.26-6.83c1.25-2.21,2.6-4.38,4.06-6.48s3.06-4.14,4.69-6.12c.8-1,1.69-2,2.55-2.93s1.7-2,2.65-2.88c1.88-1.84,3.73-3.71,5.79-5.39s4.13-3.36,6.24-5a135.93,135.93,0,0,1,13.64-8.69,246,246,0,0,1,29.7-13.8c10.19-4.05,20.53-7.75,30.73-11.58s20.32-7.79,29.87-12.46c2.42-1.13,4.71-2.41,7.05-3.63s4.57-2.56,6.72-4,4.28-2.87,6.37-4.34,4-3.09,5.8-4.82a73.73,73.73,0,0,0,5.23-5.23,61.66,61.66,0,0,0,4.4-5.75,54,54,0,0,0,3.6-6.13,10.53,10.53,0,0,0,.76-1.59l.67-1.63.68-1.62a10.9,10.9,0,0,0,.61-1.65,53.19,53.19,0,0,0,1.8-6.74c.21-1.15.48-2.28.65-3.43l.34-3.47.17-1.73v-5.23c-.05-1.16-.2-2.32-.3-3.49a29.3,29.3,0,0,0-.41-3.47,69.22,69.22,0,0,0-10.27-26.4A83.84,83.84,0,0,0,322.71,80a109.67,109.67,0,0,0-27.79-14.18,159.43,159.43,0,0,0-31.36-7.37,190.39,190.39,0,0,0-32.4-1.66Z"/><path class="cls-2" d="M361.48,279.07c3.66-21.78-16.16-40.93-44.27-42.78a66.5,66.5,0,0,0-11,.19,25,25,0,0,1,4-3.07c11.24-7,27.35-6,36,2.36-17.3-16.71-49.53-18.83-72-4.73a50.89,50.89,0,0,0-8,6.15,15.6,15.6,0,0,1,.12-4.25c1.83-10.89,14.71-19,28.77-18.05C267,213.05,241.2,229.21,237.54,251a30.82,30.82,0,0,0-.25,8.5,22.3,22.3,0,0,1-3.81-2.93c-8.64-8.36-6.55-20.84,4.69-27.89-22.47,14.1-26.66,39.07-9.37,55.78a44.32,44.32,0,0,0,7.62,5.88,32.59,32.59,0,0,1-5.51.09c-14-.92-24-10.5-22.13-21.39-3.66,21.78,16.16,40.94,44.27,42.79a67.6,67.6,0,0,0,11-.19,26.19,26.19,0,0,1-4,3.07c-11.24,7.05-27.35,6-36-2.37,17.29,16.71,49.52,18.83,72,4.74a52,52,0,0,0,8-6.15,15.52,15.52,0,0,1-.12,4.24c-1.83,10.89-14.71,19-28.77,18,28.11,1.85,53.87-14.31,57.53-36.09a30.89,30.89,0,0,0,.25-8.51,22.35,22.35,0,0,1,3.81,2.94c8.64,8.35,6.55,20.84-4.69,27.88,22.47-14.09,26.66-39.06,9.37-55.77a44.39,44.39,0,0,0-7.63-5.88,33.68,33.68,0,0,1,5.51-.1C353.4,258.6,363.31,268.18,361.48,279.07Zm-70.33-3.93-.09.25-.12.24a2.12,2.12,0,0,1-.11.21.22.22,0,0,1-.05.08l-.09.14-.14.21c0,.07-.1.13-.15.2l-.18.21-.18.18a1.89,1.89,0,0,1-.2.2l-.23.2-.19.16-.47.32c-.17.11-.34.2-.51.29l-.24.11-.3.14-.29.11-.27.1-.3.08-.28.08-.29.06-.19,0-.12,0-.29,0-.32,0-.33,0h-.28c-.21,0-.41,0-.62,0h0a6,6,0,0,1-.61-.06l-.27-.05-.32-.06-.29-.08-.28-.07-.28-.1-.26-.1-.26-.12-.26-.12-.23-.13-.09-.05-.16-.09-.24-.18-.1-.07-.1-.07a4.36,4.36,0,0,1-.4-.35,4,4,0,0,1-.35-.37l-.14-.19c-.05-.07-.11-.14-.16-.22a1.59,1.59,0,0,1-.13-.22l-.12-.2-.09-.23a1,1,0,0,1-.09-.21,2,2,0,0,1-.07-.23s0-.09,0-.14l0-.09,0-.23c0-.08,0-.16,0-.24v-.26c0-.07,0-.14,0-.21a3.91,3.91,0,0,1,.05-.48c0-.16.07-.31.11-.47a1.8,1.8,0,0,1,.08-.21,2.5,2.5,0,0,1,.09-.25c0-.08.08-.15.11-.23l.11-.21.15-.23a2.39,2.39,0,0,1,.13-.21l.16-.2a1.71,1.71,0,0,1,.18-.2,1.62,1.62,0,0,1,.18-.19c.06-.07.13-.13.2-.2l.23-.19.19-.16.47-.33.51-.29.24-.11.29-.13.3-.11.27-.1.3-.09.28-.08.29-.06.31-.06.29,0,.32,0,.33,0h.28c.2,0,.41,0,.62,0l.61.07.26.05a1.65,1.65,0,0,1,.32.06l.3.07.27.08.29.1.26.1.25.11.27.12.23.13.25.15.24.17.2.14c.14.11.27.23.4.35a4.14,4.14,0,0,1,.35.38l.07.09.07.09.16.22.08.14.05.08a2.12,2.12,0,0,1,.11.21,2.14,2.14,0,0,1,.1.22,2,2,0,0,1,.09.22,1.87,1.87,0,0,1,.07.22,2.1,2.1,0,0,1,.06.24,1.7,1.7,0,0,1,0,.22,2,2,0,0,1,0,.24,2.26,2.26,0,0,1,0,.26c0,.07,0,.14,0,.21s0,.32-.05.48-.07.32-.11.47A1.8,1.8,0,0,1,291.15,275.14Z"/><path class="cls-3" d="M338.79,204.38l1,.7Z"/><path class="cls-3" d="M231.47,285.44c-.32-.23-.65-.46-1-.7C230.82,285,231.14,285.21,231.47,285.44Z"/><path class="cls-3" d="M362.37,242.94c0-21.77-23.05-39.42-51.49-39.42q-2.86,0-5.64.24c9.78-6.14,24.08-5.93,33.55.62v-3.95c-20.18-14.68-52.07-14.45-71.87.7a43.82,43.82,0,0,0-6.94,6.6,15.91,15.91,0,0,1-.47-2.26c1.31-9.95,12.28-17.71,25.62-17.71v-3.95c-28.44,0-51.5,17.65-51.5,39.42,0,.65,0,1.3.07,2s-.07,1.33-.07,2a31.25,31.25,0,0,0,.27,4,24.46,24.46,0,0,1-3.39-2.18c-4.37-3.34-6.84-7.59-7.41-12a17.83,17.83,0,0,1,6.5-11.23v-3.94c-10.08,8.11-14.79,18.69-14.11,29.1-.7,10.74,4.31,21.65,15,29.85.83.63,1.68,1.23,2.55,1.81-13.95-.23-25.17-9-25.17-19.69v3.94c0,21.77,23.05,39.42,51.49,39.42,1.91,0,3.78-.08,5.63-.24-9.77,6.14-24.07,5.93-33.54-.62v3.95c20.17,14.68,52.07,14.45,71.87-.7a43.82,43.82,0,0,0,6.94-6.6,15.91,15.91,0,0,1,.47,2.26c-1.32,9.95-12.28,17.71-25.62,17.71V306c28.44,0,51.5-17.65,51.5-39.42,0-.65,0-1.3-.07-1.95s.07-1.33.07-2a31.25,31.25,0,0,0-.27-4,24.46,24.46,0,0,1,3.39,2.18c4.37,3.34,6.84,7.59,7.41,12a17.83,17.83,0,0,1-6.5,11.23V288c10.07-8.11,14.78-18.69,14.11-29.1.69-10.74-4.31-21.65-15-29.85-.83-.63-1.69-1.23-2.55-1.81,13.95.23,25.17,9,25.17,19.69Zm-71.52,2-.05.07a1.59,1.59,0,0,1-.13.22l-.15.2c-.06.07-.11.14-.17.2a2,2,0,0,1-.2.21L290,246l-.42.36-.46.31-.22.13-.27.15-.28.13-.25.12-.29.1-.27.1-.28.08-.18,0-.12,0-.28.05-.31.06-.33,0-.28,0-.62,0h0l-.62,0-.28,0-.33,0-.31-.06-.28-.05-.3-.08-.28-.08-.28-.1-.28-.1-.25-.12-.11-.05-.17-.08-.27-.15-.11-.06a1.05,1.05,0,0,1-.11-.07l-.46-.31-.42-.36a1.29,1.29,0,0,1-.16-.17,2,2,0,0,1-.2-.21c-.06-.06-.11-.13-.17-.2l-.15-.2-.14-.22,0-.07,0-.07.14-.22.15-.2c.06-.07.11-.14.17-.2a2,2,0,0,1,.2-.21,1.29,1.29,0,0,1,.16-.17,4.87,4.87,0,0,1,.42-.35,4.73,4.73,0,0,1,.46-.32l.22-.13.27-.15.28-.13.25-.12.28-.1.28-.1.28-.08.3-.08.28-.05.31-.06.33,0,.28,0,.62,0,.62,0,.27,0,.34,0,.31.06.28.05.3.08.28.08.27.1.29.1.25.12.28.13.27.15.22.13a4.73,4.73,0,0,1,.46.32,4.87,4.87,0,0,1,.42.35l.08.08.08.09a2,2,0,0,1,.2.21l.11.13.06.07.15.2a1.59,1.59,0,0,1,.13.22Z"/><path class="cls-3" d="M338.79,200.43l1,.7Z"/><path class="cls-4" d="M362.37,242.94c0-21.77-23.05-39.42-51.49-39.42a67.13,67.13,0,0,0-11,.91,21.48,21.48,0,0,1,3.47-3.3c10.05-7.69,26.35-7.69,36.41,0-20.11-15.39-52.72-15.39-72.83,0a43.82,43.82,0,0,0-6.94,6.6,15.19,15.19,0,0,1-.6-4.21c0-10.88,11.53-19.71,25.75-19.71-28.44,0-51.5,17.65-51.5,39.42a30.37,30.37,0,0,0,1.19,8.42,25.55,25.55,0,0,1-4.31-2.65c-10.06-7.69-10.06-20.17,0-27.87-20.11,15.39-20.11,40.35,0,55.74a51.36,51.36,0,0,0,8.62,5.32,34,34,0,0,1-5.5.45c-14.22,0-25.74-8.82-25.74-19.7,0,21.76,23.05,39.41,51.49,39.41a66.05,66.05,0,0,0,11-.91,21.48,21.48,0,0,1-3.47,3.3c-10.05,7.7-26.36,7.7-36.41,0,20.11,15.39,52.72,15.39,72.83,0a43.37,43.37,0,0,0,6.94-6.6,15.24,15.24,0,0,1,.6,4.21c0,10.88-11.53,19.71-25.75,19.71,28.44,0,51.5-17.65,51.5-39.42a30.75,30.75,0,0,0-1.19-8.42,26,26,0,0,1,4.31,2.65c10.05,7.7,10.05,20.18,0,27.87,20.11-15.39,20.11-40.35,0-55.74a52.69,52.69,0,0,0-8.62-5.32,34,34,0,0,1,5.5-.45C350.85,223.23,362.37,232.05,362.37,242.94Zm-71,.68c0,.09,0,.17,0,.26a2.09,2.09,0,0,1-.08.23,1.42,1.42,0,0,1-.07.22l0,.09a.91.91,0,0,1-.07.14,2.14,2.14,0,0,1-.1.22l-.13.2a1.59,1.59,0,0,1-.13.22l-.15.2c-.06.07-.11.14-.17.2a2,2,0,0,1-.2.21L290,246l-.42.36-.46.31-.22.13-.27.15-.28.13-.25.12-.29.1-.27.1-.28.08-.18,0-.12,0-.28.05-.31.06-.33,0-.28,0-.62,0h0l-.62,0-.28,0-.33,0-.31-.06-.28-.05-.3-.08-.28-.08-.28-.1-.28-.1-.25-.12-.11-.05-.17-.08-.27-.15-.11-.06a1.05,1.05,0,0,1-.11-.07l-.46-.31-.42-.36a1.29,1.29,0,0,1-.16-.17,2,2,0,0,1-.2-.21c-.06-.06-.11-.13-.17-.2l-.15-.2-.14-.22-.12-.2-.11-.22-.06-.14,0-.09a1.42,1.42,0,0,1-.07-.22,2.09,2.09,0,0,1-.08-.23c0-.09,0-.17-.05-.26s0-.14,0-.21a3.71,3.71,0,0,1,0-.47,3.87,3.87,0,0,1,0-.48c0-.07,0-.14,0-.21s0-.17.05-.25a2.25,2.25,0,0,1,.08-.24,1.87,1.87,0,0,1,.07-.22c0-.08.07-.15.1-.23l.11-.21.12-.21.14-.22.15-.19.17-.21.2-.21a1.29,1.29,0,0,1,.16-.17,4.87,4.87,0,0,1,.42-.35,4.73,4.73,0,0,1,.46-.32l.22-.13.27-.15.28-.13.25-.11.28-.11a2.29,2.29,0,0,1,.28-.09l.28-.08.3-.08.28-.06.31-.06.33,0,.28,0,.62,0,.62,0,.27,0,.34,0,.31.06.28.06.3.08.28.08.27.09.29.11.25.11.28.13.27.15.22.13a4.73,4.73,0,0,1,.46.32,4.87,4.87,0,0,1,.42.35.3.3,0,0,0,.08.08l.08.09.2.21.11.13.06.08.15.19a2.53,2.53,0,0,1,.13.22,2.39,2.39,0,0,1,.13.21,2,2,0,0,1,.1.21,2.4,2.4,0,0,1,.11.23,1.87,1.87,0,0,1,.07.22,2.25,2.25,0,0,1,.08.24c0,.08,0,.17,0,.25s0,.14,0,.21a3.87,3.87,0,0,1,0,.48,3.71,3.71,0,0,1,0,.47C291.37,243.48,291.35,243.55,291.34,243.62Z"/><path class="cls-5" d="M104.88,139.5c2.5-14.88-11-28-30.23-29.22a46.14,46.14,0,0,0-7.54.13,17.8,17.8,0,0,1,2.72-2.1c7.67-4.81,18.67-4.09,24.58,1.62C82.6,98.52,60.59,97.07,45.25,106.7a35,35,0,0,0-5.44,4.2,10.1,10.1,0,0,1,.08-2.9c1.25-7.44,10-13,19.64-12.33-19.2-1.26-36.78,9.78-39.28,24.65a21.05,21.05,0,0,0-.17,5.81,15,15,0,0,1-2.6-2c-5.91-5.7-4.47-14.23,3.2-19-15.34,9.63-18.21,26.68-6.4,38.09a30.58,30.58,0,0,0,5.21,4,23.52,23.52,0,0,1-3.76.07c-9.6-.63-16.37-7.17-15.12-14.61-2.5,14.87,11,28,30.23,29.22a47.31,47.31,0,0,0,7.54-.13,17.15,17.15,0,0,1-2.72,2.09C28,168.64,17,167.91,11.08,162.21c11.81,11.41,33.82,12.85,49.16,3.23a35,35,0,0,0,5.44-4.2,10.12,10.12,0,0,1-.08,2.9c-1.25,7.44-10,13-19.64,12.32,19.2,1.27,36.78-9.77,39.28-24.64a21.06,21.06,0,0,0,.17-5.81,15.48,15.48,0,0,1,2.6,2c5.9,5.71,4.47,14.23-3.2,19.05,15.34-9.63,18.21-26.68,6.4-38.09A30.58,30.58,0,0,0,86,125a22.41,22.41,0,0,1,3.76-.07C99.36,125.52,106.13,132.06,104.88,139.5Zm-48-2.69a.87.87,0,0,1-.07.17.8.8,0,0,1-.08.16,1,1,0,0,1-.07.15l0,.06-.06.09-.09.14a1.34,1.34,0,0,1-.11.14l-.12.14-.12.13-.14.13-.15.14-.14.11-.32.22a3.9,3.9,0,0,1-.35.19l-.16.08a1.76,1.76,0,0,1-.2.09l-.2.08-.18.07-.21.06-.19.05-.2,0-.13,0h-.08l-.2,0-.22,0-.23,0h-.19a3,3,0,0,1-.42,0h0l-.41,0-.19,0-.21-.05-.21,0-.18-.05-.2-.07-.18-.06-.17-.08-.18-.09-.16-.09-.06,0-.11-.07-.16-.11-.07-.05-.07,0a2,2,0,0,1-.27-.24,2,2,0,0,1-.24-.26l-.1-.12-.11-.15a1.09,1.09,0,0,1-.08-.15,2,2,0,0,1-.15-.29l-.06-.15s0-.1,0-.15a.44.44,0,0,1,0-.1.14.14,0,0,1,0-.06l0-.16s0-.11,0-.16a1.09,1.09,0,0,0,0-.18v-.14c0-.11,0-.22,0-.33a1.65,1.65,0,0,1,.07-.32.88.88,0,0,0,.05-.15s0-.11.07-.17,0-.1.07-.16,0-.09.08-.14l.1-.15.09-.15.11-.13a1.58,1.58,0,0,1,.12-.15l.12-.12a1.85,1.85,0,0,1,.14-.14l.15-.13.14-.11a2.57,2.57,0,0,1,.32-.22l.34-.2.17-.07.2-.1.2-.07.18-.07.21-.06.19,0,.2,0,.21,0,.2,0,.22,0h.84l.41.05.18,0,.22,0,.21.06.18,0,.19.06.19.07.17.08.18.08.16.09a1,1,0,0,0,.17.1l.16.12.14.1.27.23a2.84,2.84,0,0,1,.24.26l.05.06a.43.43,0,0,1,0,.07l.12.15.05.09,0,.06a.64.64,0,0,1,.08.14,1,1,0,0,1,.07.15l.06.15.05.15c0,.05,0,.11,0,.16a.77.77,0,0,1,0,.15l0,.17v.18s0,.09,0,.14,0,.22,0,.33,0,.21-.07.32A.78.78,0,0,0,56.86,136.81Z"/><path class="cls-3" d="M89.38,88.49,90,89Z"/><path class="cls-3" d="M16.1,143.84l-.65-.47Z"/><path class="cls-3" d="M105.49,114.82c0-14.86-15.74-26.91-35.16-26.91-1.3,0-2.59,0-3.85.16,6.68-4.19,16.44-4,22.9.42V85.8c-13.77-10-35.55-9.87-49.07.48a29.57,29.57,0,0,0-4.74,4.5,11.37,11.37,0,0,1-.32-1.54c.9-6.79,8.39-12.09,17.49-12.09v-2.7c-19.42,0-35.16,12-35.16,26.92,0,.44,0,.89.05,1.33s-.05.9-.05,1.36a22.48,22.48,0,0,0,.18,2.73,16.8,16.8,0,0,1-2.31-1.48,12.4,12.4,0,0,1-5.06-8.17,12.19,12.19,0,0,1,4.43-7.67V86.78C8,92.32,4.73,99.54,5.2,106.65,4.72,114,8.13,121.43,15.45,127c.56.44,1.15.84,1.74,1.24C7.66,128.11,0,122.15,0,114.82v2.7c0,14.86,15.74,26.91,35.16,26.91,1.3,0,2.59-.05,3.85-.16-6.68,4.19-16.44,4-22.91-.43v2.7c13.78,10,35.56,9.87,49.08-.48a30,30,0,0,0,4.74-4.5,11.37,11.37,0,0,1,.32,1.54c-.9,6.79-8.39,12.09-17.5,12.09v2.7c19.42,0,35.17-12,35.17-26.92,0-.44,0-.89,0-1.33s0-.9,0-1.36a20.52,20.52,0,0,0-.19-2.73A16.9,16.9,0,0,1,90,127a12.44,12.44,0,0,1,5.06,8.17,12.16,12.16,0,0,1-4.44,7.67v2.69c6.88-5.54,10.1-12.76,9.63-19.88.48-7.33-2.94-14.78-10.25-20.37-.57-.44-1.15-.84-1.74-1.24,9.53.16,17.19,6.12,17.19,13.45Zm-48.84,1.35,0,0-.09.15-.11.13a.76.76,0,0,1-.11.14l-.14.15-.11.11a3.22,3.22,0,0,1-.28.24,3.62,3.62,0,0,1-.32.22l-.15.09-.18.1-.19.09-.17.08-.2.07-.18.06-.2.06-.12,0L54,118l-.2,0-.21,0-.22,0-.19,0h-.85l-.19,0-.22,0-.22,0-.19,0-.2,0-.2-.06-.18-.06-.2-.07-.17-.08-.07,0-.12-.06-.18-.1-.08,0-.07,0a3.62,3.62,0,0,1-.32-.22,3.22,3.22,0,0,1-.28-.24l-.12-.11-.13-.15a.76.76,0,0,1-.11-.14l-.11-.13-.09-.15,0,0,0,0L49,116a.69.69,0,0,1,.11-.13l.11-.15.13-.14.12-.11a2.09,2.09,0,0,1,.28-.24A3.62,3.62,0,0,1,50,115l.15-.09.18-.1.19-.09.17-.08.2-.07.18-.06.2-.06.2-.05.19,0,.22,0,.22,0,.19,0,.42,0,.43,0,.19,0,.22,0,.21,0,.2,0,.2.05.2.06.18.06.2.07.17.08.19.09.18.1.15.09a3.62,3.62,0,0,1,.32.22,2.09,2.09,0,0,1,.28.24l.06,0,.05.06.14.14.07.09a.21.21,0,0,1,0,.06l.11.13.09.15Z"/><path class="cls-3" d="M89.38,85.8c.22.16.45.31.66.48A8,8,0,0,0,89.38,85.8Z"/><path class="cls-6" d="M105.49,114.82c0-14.86-15.74-26.91-35.16-26.91a45.07,45.07,0,0,0-7.52.62,14.57,14.57,0,0,1,2.37-2.25C72,81,83.17,81,90,86.28c-13.73-10.51-36-10.51-49.73,0a29.57,29.57,0,0,0-4.74,4.5,10.59,10.59,0,0,1-.41-2.87c0-7.43,7.87-13.46,17.58-13.46-19.42,0-35.16,12-35.16,26.92a20.91,20.91,0,0,0,.81,5.75,18,18,0,0,1-2.94-1.81c-6.87-5.26-6.87-13.78,0-19-13.73,10.51-13.73,27.55,0,38.06A36,36,0,0,0,21.33,128a22.86,22.86,0,0,1-3.75.31c-9.71,0-17.58-6-17.58-13.46,0,14.87,15.74,26.91,35.16,26.91a46.17,46.17,0,0,0,7.52-.61,15.48,15.48,0,0,1-2.37,2.25c-6.86,5.25-18,5.25-24.86,0,13.73,10.51,36,10.51,49.73,0a30.06,30.06,0,0,0,4.74-4.51,10.64,10.64,0,0,1,.41,2.87c0,7.44-7.88,13.46-17.59,13.46,19.42,0,35.17-12.05,35.17-26.91a20.93,20.93,0,0,0-.81-5.76A18,18,0,0,1,90,124.34c6.87,5.25,6.87,13.77,0,19,13.73-10.51,13.73-27.55,0-38.06a34.39,34.39,0,0,0-5.89-3.63,22,22,0,0,1,3.76-.31C97.62,101.37,105.49,107.39,105.49,114.82ZM57,115.29l0,.17a1.09,1.09,0,0,1-.05.17c0,.05,0,.1,0,.14l0,.06a1,1,0,0,1,0,.1,1,1,0,0,0-.07.15l-.09.14-.09.15-.11.13a.76.76,0,0,1-.11.14l-.14.15-.11.11a3.22,3.22,0,0,1-.28.24,3.62,3.62,0,0,1-.32.22l-.15.09-.18.1-.19.09-.17.08-.2.07-.18.06-.2.06-.12,0L54,118l-.2,0-.21,0-.22,0-.19,0h-.85l-.19,0-.22,0-.22,0-.19,0-.2,0-.2-.06-.18-.06-.2-.07-.17-.08-.07,0-.12-.06-.18-.1-.08,0-.07,0a3.62,3.62,0,0,1-.32-.22,3.22,3.22,0,0,1-.28-.24l-.12-.11-.13-.15a.76.76,0,0,1-.11-.14l-.11-.13-.09-.15-.09-.14a1,1,0,0,0-.07-.15,1,1,0,0,1,0-.1l0-.06s0-.09,0-.14a1.09,1.09,0,0,1-.05-.17s0-.11,0-.17,0-.1,0-.14a1.83,1.83,0,0,1,0-.33,1.67,1.67,0,0,1,0-.32s0-.1,0-.15,0-.11,0-.17a1,1,0,0,1,.05-.16s0-.1,0-.15l.07-.16s0-.1.07-.14l.09-.15.09-.15.11-.13a1.34,1.34,0,0,1,.11-.14l.13-.14.12-.12.28-.24a3.62,3.62,0,0,1,.32-.22l.15-.08.18-.11.19-.08.17-.08.2-.07.18-.07.2-.05.2-.06.19,0,.22,0,.22,0,.19,0,.42,0,.43,0,.19,0,.22,0,.21,0,.2,0,.2.06.2.05.18.07.2.07.17.08.19.08.18.11.15.08a3.62,3.62,0,0,1,.32.22l.28.24.06.06.05.06a.93.93,0,0,1,.14.14l.07.09,0,0,.11.13.09.15.09.15s0,.09.07.14l.07.16,0,.15a1,1,0,0,1,.05.16l0,.17a.8.8,0,0,1,0,.15c0,.1,0,.21,0,.32s0,.22,0,.33A.89.89,0,0,1,57,115.29Z"/><path class="cls-7" d="M160.55,258c3.1-18.45-13.7-34.68-37.51-36.24a56,56,0,0,0-9.35.16,21,21,0,0,1,3.38-2.6c9.51-6,23.16-5.08,30.49,2-14.65-14.15-41.95-16-61-4a43.63,43.63,0,0,0-6.76,5.21,13.23,13.23,0,0,1,.1-3.6c1.55-9.22,12.46-16.07,24.37-15.28-23.82-1.57-45.63,12.12-48.73,30.57a25.69,25.69,0,0,0-.21,7.2,18.71,18.71,0,0,1-3.23-2.48c-7.33-7.08-5.55-17.65,4-23.62-19,11.94-22.59,33.09-7.94,47.24a37.92,37.92,0,0,0,6.46,5,27.9,27.9,0,0,1-4.67.09c-11.9-.79-20.3-8.9-18.75-18.13C28.09,268,44.88,284.18,68.7,285.75a56.92,56.92,0,0,0,9.34-.16,21,21,0,0,1-3.37,2.6c-9.51,6-23.16,5.07-30.49-2,14.65,14.16,41.95,15.95,61,4a42.43,42.43,0,0,0,6.76-5.21,13.22,13.22,0,0,1-.1,3.6c-1.55,9.23-12.46,16.07-24.37,15.29,23.82,1.57,45.63-12.12,48.73-30.57a26.14,26.14,0,0,0,.21-7.21,18.76,18.76,0,0,1,3.23,2.49c7.32,7.07,5.55,17.65-4,23.62,19-11.94,22.59-33.09,7.94-47.25a37.92,37.92,0,0,0-6.46-5,27.79,27.79,0,0,1,4.66-.08C153.7,240.67,162.1,248.78,160.55,258ZM101,254.68a1.8,1.8,0,0,1-.08.21,1.86,1.86,0,0,1-.1.2,1.51,1.51,0,0,1-.09.18.43.43,0,0,1,0,.07l-.08.12-.11.18c0,.05-.09.11-.14.17s-.09.12-.15.17a1.14,1.14,0,0,1-.15.16l-.17.17-.19.16-.17.14-.4.27-.43.25-.2.09-.25.12-.25.09-.23.08-.25.08-.24.06-.25.05-.16,0-.1,0-.25,0-.26,0h-.29l-.23,0-.53,0h0l-.51-.05-.23,0-.27-.06-.25-.06-.23-.06-.24-.09-.23-.08-.21-.1-.22-.1-.2-.11-.08-.05-.13-.08-.21-.14-.08-.06-.08-.06a2.43,2.43,0,0,1-.34-.3,3,3,0,0,1-.3-.32l-.12-.15c0-.06-.09-.12-.13-.19a1.74,1.74,0,0,1-.11-.18,1.62,1.62,0,0,1-.1-.18,1.54,1.54,0,0,1-.08-.19,1.42,1.42,0,0,1-.08-.18l-.06-.19,0-.12a.31.31,0,0,1,0-.08l0-.19a1.52,1.52,0,0,1,0-.21,1.48,1.48,0,0,1,0-.21v-.18a2.85,2.85,0,0,1,0-.41c0-.13.06-.27.09-.4l.07-.18a1.8,1.8,0,0,1,.08-.21l.09-.2a1.62,1.62,0,0,1,.1-.18,1.88,1.88,0,0,1,.12-.18,1.74,1.74,0,0,1,.11-.18,2.09,2.09,0,0,1,.14-.17l.14-.18.16-.15a1.37,1.37,0,0,1,.17-.17l.19-.17.17-.13a3.89,3.89,0,0,1,.39-.28,3.75,3.75,0,0,1,.44-.24l.2-.1.25-.11.24-.1L94,250l.26-.07.24-.07.25-.05.26-.05.24,0,.27,0h1a4.35,4.35,0,0,1,.52.06l.23,0,.27.05.25.07.23.06.24.08.22.09.22.09.22.11.2.11.21.12.2.14c.06.05.12.08.17.13s.23.19.34.29.21.21.3.32l.06.08a.56.56,0,0,1,0,.08l.14.18a.75.75,0,0,1,.07.12l0,.07.1.17a1.54,1.54,0,0,1,.08.19c0,.07.06.13.08.19a1.05,1.05,0,0,1,.05.19l.06.2,0,.18,0,.21c0,.07,0,.15,0,.22v.18c0,.13,0,.27,0,.4s-.06.27-.1.4A1.27,1.27,0,0,1,101,254.68Z"/><path class="cls-3" d="M141.32,194.74l.82.59C141.87,195.13,141.6,194.93,141.32,194.74Z"/><path class="cls-3" d="M50.41,263.4c-.27-.19-.54-.38-.81-.59C49.87,263,50.14,263.21,50.41,263.4Z"/><path class="cls-3" d="M161.3,227.4C161.3,209,141.77,194,117.68,194c-1.61,0-3.2.07-4.77.2,8.28-5.2,20.39-5,28.41.53v-3.35c-17.09-12.43-44.1-12.24-60.87.6a36.65,36.65,0,0,0-5.89,5.59,12.57,12.57,0,0,1-.39-1.92c1.11-8.42,10.4-15,21.7-15v-3.34c-24.09,0-43.62,15-43.62,33.39,0,.55,0,1.1,0,1.65s0,1.12,0,1.69a27.31,27.31,0,0,0,.22,3.39,21.59,21.59,0,0,1-2.87-1.85,15.41,15.41,0,0,1-6.28-10.13A15.13,15.13,0,0,1,48.83,196v-3.34c-8.53,6.87-12.52,15.83-11.95,24.66-.59,9.09,3.65,18.33,12.72,25.28.7.53,1.43,1,2.16,1.53-11.82-.19-21.32-7.59-21.32-16.68v3.34c0,18.44,19.53,33.39,43.62,33.39,1.61,0,3.2-.07,4.77-.2-8.28,5.2-20.39,5-28.42-.53v3.35c17.09,12.43,44.11,12.24,60.88-.59a37.52,37.52,0,0,0,5.89-5.59,15,15,0,0,1,.39,1.91c-1.11,8.43-10.4,15-21.7,15v3.34c24.09,0,43.62-14.94,43.62-33.38,0-.56,0-1.11-.05-1.66s.05-1.12.05-1.69a25.51,25.51,0,0,0-.23-3.39,22.07,22.07,0,0,1,2.88,1.85,15.35,15.35,0,0,1,6.27,10.13,15.07,15.07,0,0,1-5.5,9.51v3.34c8.53-6.87,12.52-15.83,12-24.65.59-9.1-3.65-18.34-12.72-25.29-.7-.53-1.43-1-2.17-1.53,11.83.2,21.33,7.59,21.33,16.68Zm-60.59,1.67,0,.06-.12.19a1.83,1.83,0,0,1-.13.16l-.14.18-.17.18L100,230c-.11.1-.22.2-.35.3l-.39.27-.19.11-.23.12-.23.11-.21.1-.25.09-.23.08-.23.07-.16,0-.1,0-.24,0-.26,0a2.66,2.66,0,0,1-.28,0l-.24,0-.52,0h0l-.53,0-.23,0a2.66,2.66,0,0,1-.28,0l-.26,0-.25,0-.25-.07-.24-.07-.23-.08-.24-.09-.21-.1-.09,0a.61.61,0,0,1-.14-.07l-.23-.12-.1-.06-.09,0-.39-.27c-.13-.1-.24-.2-.35-.3l-.15-.14-.16-.18-.15-.18-.12-.16-.12-.19,0-.06a.21.21,0,0,0,0-.06l.12-.19.12-.16.15-.18.16-.17.15-.15c.11-.1.22-.2.35-.3l.39-.27.19-.1a1.71,1.71,0,0,1,.23-.13l.23-.11.21-.1.24-.09.23-.08.24-.07.25-.06.25,0,.26-.05.28,0,.23,0,.53,0,.52,0,.24,0,.28,0,.26.05.24,0,.26.06.23.07.23.08.25.09.21.1.23.11a1.71,1.71,0,0,1,.23.13l.19.1.39.27c.13.1.24.2.35.3l.07.07.07.08.17.17.09.11.05.07a1.83,1.83,0,0,1,.13.16l.12.19Z"/><path class="cls-3" d="M141.32,191.39c.27.2.55.39.82.6C141.87,191.78,141.6,191.59,141.32,191.39Z"/><path class="cls-8" d="M161.3,227.4C161.3,209,141.77,194,117.68,194a56.72,56.72,0,0,0-9.32.77,18.17,18.17,0,0,1,2.93-2.79c8.52-6.52,22.33-6.52,30.85,0-17-13-44.66-13-61.69,0a36.65,36.65,0,0,0-5.89,5.59,12.88,12.88,0,0,1-.5-3.57c0-9.22,9.76-16.69,21.81-16.69-24.09,0-43.62,15-43.62,33.39a26.13,26.13,0,0,0,1,7.13,21.31,21.31,0,0,1-3.65-2.25c-8.52-6.51-8.52-17.08,0-23.6-17,13-17,34.17,0,47.21a43.31,43.31,0,0,0,7.3,4.51,28.24,28.24,0,0,1-4.65.38c-12,0-21.81-7.47-21.81-16.69,0,18.44,19.53,33.39,43.62,33.39a56.72,56.72,0,0,0,9.32-.77,18.17,18.17,0,0,1-2.93,2.79c-8.52,6.52-22.33,6.52-30.85,0,17,13,44.66,13,61.69,0a37.07,37.07,0,0,0,5.89-5.59,13.27,13.27,0,0,1,.5,3.57c0,9.22-9.77,16.69-21.81,16.69,24.09,0,43.62-15,43.62-33.39a26.13,26.13,0,0,0-1-7.13,21.91,21.91,0,0,1,3.65,2.24c8.51,6.52,8.51,17.09,0,23.61,17-13,17-34.18,0-47.22a44,44,0,0,0-7.31-4.5,28.45,28.45,0,0,1,4.66-.38C151.54,210.71,161.3,218.18,161.3,227.4Zm-60.17.58c0,.07,0,.14,0,.21l-.07.21-.06.18,0,.07-.06.12a1.11,1.11,0,0,1-.09.19l-.1.17-.12.19a1.83,1.83,0,0,1-.13.16l-.14.18-.17.18L100,230c-.11.1-.22.2-.35.3l-.39.27-.19.11-.23.12-.23.11-.21.1-.25.09-.23.08-.23.07-.16,0-.1,0-.24,0-.26,0a2.66,2.66,0,0,1-.28,0l-.24,0-.52,0h0l-.53,0-.23,0a2.66,2.66,0,0,1-.28,0l-.26,0-.25,0-.25-.07-.24-.07-.23-.08-.24-.09-.21-.1-.09,0a.61.61,0,0,1-.14-.07l-.23-.12-.1-.06-.09,0-.39-.27c-.13-.1-.24-.2-.35-.3l-.15-.14-.16-.18-.15-.18-.12-.16-.12-.19A1.63,1.63,0,0,0,91,229c0-.06,0-.12-.08-.19l-.06-.12,0-.07a1.27,1.27,0,0,1-.06-.18,1.72,1.72,0,0,1-.07-.21,1.55,1.55,0,0,1,0-.21,1.13,1.13,0,0,1,0-.18,2.69,2.69,0,0,1,0-.4,2.6,2.6,0,0,1,0-.4,1.13,1.13,0,0,1,0-.18,1.7,1.7,0,0,1,0-.22c0-.06,0-.13.07-.2a1.27,1.27,0,0,1,.06-.18,1.76,1.76,0,0,1,.09-.2l.08-.18a1.74,1.74,0,0,0,.11-.18l.12-.18.12-.16.15-.18.16-.18.15-.14c.11-.1.22-.2.35-.3a2.7,2.7,0,0,1,.39-.27l.19-.11.23-.13.23-.1.21-.1.24-.09.23-.08.24-.07.25-.07.25,0,.26-.05.28,0,.23,0a4.7,4.7,0,0,1,.53,0,4.43,4.43,0,0,1,.52,0l.24,0,.28,0,.26.05.24,0,.26.07.23.07.23.08.25.09.21.1.23.1.23.13.19.11a2.7,2.7,0,0,1,.39.27c.13.1.24.2.35.3l.07.07.07.07.17.18.09.11a.18.18,0,0,1,.05.07,1,1,0,0,1,.13.16l.12.18.1.18a1.51,1.51,0,0,1,.09.18l.09.2.06.18c0,.07,0,.14.07.2s0,.15,0,.22l0,.18a2.6,2.6,0,0,1,0,.4,2.69,2.69,0,0,1,0,.4Z"/><path class="cls-9" d="M298.75,133.52c4.28-25.52-18.94-48-51.88-50.13a78.35,78.35,0,0,0-12.93.22A29.78,29.78,0,0,1,238.6,80c13.16-8.25,32-7,42.18,2.78-20.27-19.58-58-22.06-84.35-5.55a59.16,59.16,0,0,0-9.35,7.21,18.15,18.15,0,0,1,.14-5c2.15-12.76,17.24-22.23,33.71-21.14-32.94-2.17-63.12,16.76-67.41,42.28a36,36,0,0,0-.29,10,25.47,25.47,0,0,1-4.46-3.44c-10.13-9.79-7.68-24.42,5.48-32.67-26.32,16.51-31.23,45.77-11,65.35a51.93,51.93,0,0,0,8.93,6.89,38.48,38.48,0,0,1-6.45.11c-16.47-1.08-28.09-12.3-25.94-25.06-4.29,25.52,18.94,48,51.88,50.13a78.39,78.39,0,0,0,12.93-.22,30.36,30.36,0,0,1-4.67,3.6c-13.16,8.25-32,7-42.17-2.78,20.26,19.58,58,22.07,84.35,5.55a58.94,58.94,0,0,0,9.34-7.21,17.77,17.77,0,0,1-.14,5C229.2,188.57,214.11,198,197.64,197c32.94,2.16,63.12-16.77,67.4-42.29a36,36,0,0,0,.29-10,25.92,25.92,0,0,1,4.47,3.44c10.13,9.79,7.67,24.42-5.49,32.67,26.32-16.51,31.24-45.77,11-65.35a52.4,52.4,0,0,0-8.94-6.89,38.58,38.58,0,0,1,6.46-.11C289.28,109.54,300.89,120.76,298.75,133.52Zm-82.41-4.6c0,.09-.07.19-.11.29s-.09.18-.14.27l-.12.25a3,3,0,0,0-.17.26,2.46,2.46,0,0,1-.35.48,2.43,2.43,0,0,1-.2.25l-.21.21-.24.24a2,2,0,0,1-.27.22l-.22.19c-.18.13-.36.26-.55.38s-.4.24-.6.34l-.28.13-.35.16-.34.13-.31.12-.36.1-.33.09-.34.07-.22,0-.14,0-.34.05-.38,0-.39,0-.32,0-.72,0h0l-.71-.08-.31-.06-.38-.07c-.12,0-.23-.06-.35-.09l-.32-.09-.33-.11-.31-.12-.29-.13a3,3,0,0,1-.31-.15c-.09,0-.18-.1-.27-.15l-.11-.06-.18-.11-.29-.2-.12-.08-.11-.08-.47-.41a5.57,5.57,0,0,1-.41-.45l-.16-.21-.19-.26a2.2,2.2,0,0,1-.15-.26,1.88,1.88,0,0,1-.14-.24,2,2,0,0,1-.11-.26c0-.09-.08-.17-.11-.25s0-.18-.08-.27,0-.11,0-.17a.38.38,0,0,1,0-.1c0-.09,0-.18,0-.26a2.93,2.93,0,0,1,0-.29V128a2.09,2.09,0,0,1,0-.25,5.62,5.62,0,0,1,.06-.56,3.39,3.39,0,0,1,.13-.55c0-.08.06-.16.09-.25s.06-.19.1-.29.09-.18.14-.27a2,2,0,0,1,.13-.25l.16-.26.16-.25.19-.23.2-.25.22-.21.23-.24.27-.22.23-.19a5.89,5.89,0,0,1,.55-.38c.19-.12.39-.24.59-.34l.29-.13.34-.16.34-.13.32-.11.35-.11.33-.09.35-.07.36-.07.34,0,.37,0,.39,0h.33a5.77,5.77,0,0,1,.72,0c.24,0,.48,0,.71.07l.31.06.38.07c.12,0,.23.06.35.09l.32.09.33.11.31.12.3.13c.1,0,.2.09.3.15a2.49,2.49,0,0,1,.28.15l.29.17a2.83,2.83,0,0,1,.28.2l.23.17a3.67,3.67,0,0,1,.47.4q.22.23.42.45l.07.1.09.11.19.26.09.16.06.1.13.24a2.06,2.06,0,0,1,.12.26c0,.09.07.17.1.26a2,2,0,0,1,.08.26,2.76,2.76,0,0,1,.08.27c0,.09,0,.18,0,.26s0,.19,0,.29,0,.2,0,.3a2.09,2.09,0,0,1,0,.25,5.54,5.54,0,0,1-.05.56c0,.19-.08.37-.13.55Z"/><path class="cls-3" d="M272.15,47.5c.38.28.76.54,1.13.82C272.91,48,272.54,47.77,272.15,47.5Z"/><path class="cls-3" d="M146.41,142.48c-.38-.27-.76-.53-1.13-.82C145.65,142,146,142.22,146.41,142.48Z"/><path class="cls-3" d="M299.79,92.68c0-25.5-27-46.18-60.34-46.18q-3.34,0-6.6.27c11.46-7.18,28.21-6.94,39.3.73V42.88c-23.63-17.2-61-16.94-84.2.82a51,51,0,0,0-8.14,7.73,17.06,17.06,0,0,1-.54-2.65C180.8,37.13,193.66,28,209.28,28V23.41c-33.32,0-60.34,20.67-60.34,46.18,0,.77,0,1.53.08,2.29s-.08,1.55-.08,2.34a34.6,34.6,0,0,0,.32,4.68,28.94,28.94,0,0,1-4-2.55c-5.12-3.92-8-8.89-8.68-14a20.93,20.93,0,0,1,7.61-13.16V44.56c-11.8,9.5-17.32,21.9-16.52,34.11-.82,12.57,5,25.36,17.59,35,1,.75,2,1.45,3,2.13-16.36-.27-29.51-10.5-29.51-23.08v4.63c0,25.5,27,46.18,60.34,46.18,2.23,0,4.44-.1,6.6-.28-11.45,7.19-28.2,6.95-39.3-.73v4.63c23.64,17.2,61,16.93,84.2-.82a50.62,50.62,0,0,0,8.14-7.73,18.33,18.33,0,0,1,.55,2.65c-1.54,11.65-14.39,20.74-30,20.74v4.63c33.33,0,60.34-20.68,60.34-46.18,0-.77,0-1.53-.08-2.29s.08-1.55.08-2.34a36.58,36.58,0,0,0-.31-4.69,30.47,30.47,0,0,1,4,2.55c5.12,3.92,8,8.9,8.68,14a20.83,20.83,0,0,1-7.61,13.15v4.63c11.8-9.5,17.32-21.9,16.52-34.11.82-12.58-5-25.36-17.59-35-1-.74-2-1.44-3-2.12,16.35.27,29.5,10.5,29.5,23.08ZM216,95a.41.41,0,0,1,0,.09l-.16.26-.17.22-.2.25-.23.24-.2.2a5.06,5.06,0,0,1-.49.41A6.42,6.42,0,0,1,214,97l-.27.15a3.07,3.07,0,0,1-.31.17l-.32.15-.3.14-.33.12-.32.11-.33.1-.22,0-.13,0-.34.07-.36.06-.39,0-.32,0-.73,0h0l-.72,0-.33,0-.39,0-.36-.06-.33-.07L206.8,98l-.33-.1-.32-.11-.34-.12-.29-.14-.12-.05a1.24,1.24,0,0,1-.2-.1l-.32-.17-.14-.08-.12-.07a5.22,5.22,0,0,1-.54-.38c-.17-.13-.34-.27-.49-.41a1.8,1.8,0,0,1-.19-.2l-.24-.24a2.35,2.35,0,0,1-.19-.25l-.18-.22-.16-.26,0-.09a.56.56,0,0,0,0-.08l.16-.26.18-.23.19-.24.24-.24a1.8,1.8,0,0,1,.19-.2c.15-.14.32-.28.49-.42s.35-.25.54-.37l.26-.15.32-.18.32-.15.29-.13.34-.12.32-.12.33-.09.35-.09.33-.07.36-.07.39,0,.33,0c.23,0,.48,0,.72,0s.49,0,.73,0l.32,0,.39,0,.36.07.34.07.35.09.33.09.32.12.33.12.3.13.32.15.31.18L214,93c.18.12.36.24.53.37s.34.28.49.42l.1.09.1.11.23.24.12.15.08.09c.05.08.12.15.17.23l.16.26Z"/><path class="cls-3" d="M272.15,42.88c.38.27.76.54,1.13.82C272.91,43.42,272.54,43.14,272.15,42.88Z"/><path class="cls-10" d="M299.79,91.18c0-25.5-27-46.18-60.34-46.18a78.8,78.8,0,0,0-12.9,1.06,25.4,25.4,0,0,1,4.06-3.86c11.79-9,30.89-9,42.67,0-23.56-18-61.77-18-85.33,0a51,51,0,0,0-8.14,7.73,18.07,18.07,0,0,1-.7-4.93c0-12.75,13.51-23.09,30.17-23.09-33.32,0-60.34,20.67-60.34,46.18A35.77,35.77,0,0,0,150.33,78a30.3,30.3,0,0,1-5.05-3.11c-11.78-9-11.78-23.63,0-32.65-23.56,18-23.56,47.27,0,65.31a60.66,60.66,0,0,0,10.1,6.23,38.69,38.69,0,0,1-6.44.53c-16.66,0-30.17-10.34-30.17-23.09,0,25.51,27,46.18,60.34,46.18A78.8,78.8,0,0,0,192,136.3a25.4,25.4,0,0,1-4.06,3.86c-11.78,9-30.88,9-42.67,0,23.57,18,61.77,18,85.33,0a50.18,50.18,0,0,0,8.14-7.73,17.69,17.69,0,0,1,.7,4.93c0,12.76-13.51,23.09-30.17,23.09,33.33,0,60.34-20.67,60.34-46.18a35.77,35.77,0,0,0-1.39-9.87,29.9,29.9,0,0,1,5,3.11c11.78,9,11.78,23.64,0,32.65,23.56-18,23.56-47.27,0-65.31a60.91,60.91,0,0,0-10.1-6.23,39.88,39.88,0,0,1,6.44-.53C286.28,68.09,299.79,78.43,299.79,91.18Zm-83.23.8-.06.3-.09.28a2.67,2.67,0,0,1-.09.26,1,1,0,0,0,0,.1l-.08.16-.12.26c0,.08-.1.16-.15.24l-.16.26-.17.22-.2.25-.23.24-.2.2a5.06,5.06,0,0,1-.49.41,6.42,6.42,0,0,1-.53.38l-.27.15a3.07,3.07,0,0,1-.31.17l-.32.15-.3.14-.33.12-.32.11-.33.1-.22,0-.13,0-.34.07-.36.06-.39,0-.32,0-.73,0h0l-.72,0-.33,0-.39,0-.36-.06-.33-.07-.35-.09-.33-.1-.32-.11-.34-.12-.29-.14L205.4,96a1.24,1.24,0,0,1-.2-.1l-.32-.17-.14-.08-.12-.07a5.22,5.22,0,0,1-.54-.38c-.17-.13-.34-.27-.49-.41a1.8,1.8,0,0,1-.19-.2l-.24-.24a2.35,2.35,0,0,1-.19-.25l-.18-.22-.16-.26-.15-.24-.12-.26-.07-.16a.93.93,0,0,1,0-.1l-.09-.26a2.29,2.29,0,0,1-.08-.28c0-.1,0-.2-.06-.3a2,2,0,0,1,0-.24,5.27,5.27,0,0,1,0-.56,4.91,4.91,0,0,1,0-.55,1.84,1.84,0,0,1,0-.25c0-.1,0-.2.06-.3s.05-.19.08-.28l.09-.25.12-.27.12-.25.15-.25c.05-.08.1-.17.16-.25l.18-.23c.06-.08.12-.17.19-.25l.24-.24.19-.2c.15-.14.32-.28.49-.41a5.14,5.14,0,0,1,.54-.37,2.2,2.2,0,0,1,.26-.15,3.3,3.3,0,0,1,.32-.18,3.13,3.13,0,0,1,.32-.15l.29-.14.34-.12.32-.11a3.18,3.18,0,0,1,.33-.09l.35-.1.33-.06.36-.07.39,0,.33,0c.23,0,.48,0,.72,0s.49,0,.73,0l.32,0,.39,0,.36.07.34.06.35.1c.11,0,.22,0,.33.09l.32.11.33.12.3.14.32.15a3.14,3.14,0,0,1,.31.18c.09,0,.18.09.27.15a6.3,6.3,0,0,1,.53.37,5.06,5.06,0,0,1,.49.41s.06.07.1.1l.1.1.23.24.12.16.08.09c.05.07.12.15.17.23s.11.17.16.25a2.07,2.07,0,0,1,.15.25l.12.25c0,.09.09.18.12.27a2.5,2.5,0,0,1,.09.25l.09.28.06.3c0,.08,0,.16,0,.25a3.31,3.31,0,0,1,0,.55,3.52,3.52,0,0,1,0,.56C216.59,91.82,216.57,91.9,216.56,92Z"/><circle class="cls-3" cx="190.96" cy="107.38" r="1.59"/><circle class="cls-3" cx="198.3" cy="107.38" r="1.59"/><path class="cls-3" d="M198.93,109.86a1.28,1.28,0,1,0,1.28,1.28A1.27,1.27,0,0,0,198.93,109.86Z"/><circle class="cls-3" cx="201.14" cy="64.76" r="1.59"/><path class="cls-3" d="M204.85,64.24A1.28,1.28,0,1,0,203.57,63,1.27,1.27,0,0,0,204.85,64.24Z"/><path class="cls-3" d="M209.69,102.12a20.4,20.4,0,0,0,7.75-1.53.76.76,0,0,1,1,.39,9.31,9.31,0,0,1,.68,2.4,1.61,1.61,0,0,0,1.58,1.39h0a1.6,1.6,0,0,0,1.58-1.83,12.58,12.58,0,0,0-1.1-3.62.74.74,0,0,1,.25-.93,19.54,19.54,0,0,0,2.23-1.83.78.78,0,0,1,1.21.2,17,17,0,0,1,1.92,6.57,1.61,1.61,0,0,0,2.21,1.32,1.62,1.62,0,0,0,1-1.67,20.14,20.14,0,0,0-2.44-8,3.51,3.51,0,0,1,0-3.4c.33-.59.63-1.2.9-1.82a21.15,21.15,0,0,0,1-3.18,20.29,20.29,0,0,0-5.72-19.46c-.25-.24-.5-.47-.76-.69a1.61,1.61,0,0,0-2.6.74c-.1.33-.2.67-.28,1a20.46,20.46,0,0,0-.57,4.79,20.18,20.18,0,0,0,5.09,13.43,2.75,2.75,0,0,1,.42,3c-.06.13-.12.25-.19.37a.76.76,0,0,1-1.19.2,20.37,20.37,0,0,0-6.45-4.12,2.17,2.17,0,0,1-1.38-2v-.6a2.27,2.27,0,0,1,.71-1.59,2.23,2.23,0,1,0-3,.16,1.32,1.32,0,0,1,.52,1v.41a1.37,1.37,0,0,1-1.54,1.36,19.38,19.38,0,0,0-5.69,0,1.36,1.36,0,0,1-1.54-1.36v-.41a1.34,1.34,0,0,1,.51-1,2.22,2.22,0,1,0-3-.16,2.27,2.27,0,0,1,.71,1.59v.6a2.17,2.17,0,0,1-1.38,2A20.37,20.37,0,0,0,195.74,90a.76.76,0,0,1-1.19-.2c-.07-.12-.13-.24-.19-.37a2.75,2.75,0,0,1,.42-3A20.18,20.18,0,0,0,199.87,73a20.46,20.46,0,0,0-.57-4.79c-.09-.34-.18-.68-.28-1a1.61,1.61,0,0,0-2.6-.74c-.26.22-.51.45-.76.69a20.29,20.29,0,0,0-5.72,19.46A21.15,21.15,0,0,0,191,89.76c.27.62.57,1.23.89,1.82a3.51,3.51,0,0,1,0,3.4,20.14,20.14,0,0,0-2.44,8,1.62,1.62,0,0,0,1,1.67,1.59,1.59,0,0,0,2.2-1.32,17.21,17.21,0,0,1,1.93-6.57.78.78,0,0,1,1.21-.2A19.54,19.54,0,0,0,198,98.39a.75.75,0,0,1,.25.93,12.58,12.58,0,0,0-1.1,3.62,1.6,1.6,0,0,0,1.58,1.83h0a1.61,1.61,0,0,0,1.58-1.39A9.31,9.31,0,0,1,201,101a.76.76,0,0,1,1-.39A20.35,20.35,0,0,0,209.69,102.12Z"/><circle class="cls-3" cx="228.43" cy="107.38" r="1.59"/><circle class="cls-3" cx="221.09" cy="107.38" r="1.59"/><path class="cls-3" d="M220.45,109.86a1.28,1.28,0,1,1-1.27,1.28A1.28,1.28,0,0,1,220.45,109.86Z"/><circle class="cls-3" cx="218.25" cy="64.76" r="1.59"/><path class="cls-3" d="M214.54,64.24A1.28,1.28,0,1,1,215.82,63,1.27,1.27,0,0,1,214.54,64.24Z"/><path class="cls-11" d="M362.14,95.29l-.07-3.68,0-.92-.1-.91-.21-1.84c-.15-1.22-.26-2.44-.44-3.66l-.75-3.63a30.14,30.14,0,0,0-.88-3.61A64.79,64.79,0,0,0,357.3,70a81.72,81.72,0,0,0-16.42-25.81,39,39,0,0,0-2.79-2.82l-2.88-2.75c-2-1.78-4.13-3.41-6.19-5.12a108.86,108.86,0,0,0-13.73-8.77l-1.66-.86a163.45,163.45,0,0,0-29.18-10.94A116.89,116.89,0,0,0,269,9.75a119.13,119.13,0,0,0-13.81-1A16.84,16.84,0,0,1,258.85,4a19.84,19.84,0,0,1,6.76-4,71,71,0,0,0-24.35,7.54A60.77,60.77,0,0,0,222,23.35,135.25,135.25,0,0,1,252.11,19a112.66,112.66,0,0,1,17.87.82A100.16,100.16,0,0,1,281.68,22a144.92,144.92,0,0,1,28.48,10.23,99.91,99.91,0,0,1,12.59,7.67c1.88,1.5,3.86,2.93,5.69,4.5l2.64,2.42a33.72,33.72,0,0,1,2.58,2.48,74.62,74.62,0,0,1,15.41,23,59.23,59.23,0,0,1,2.32,6.37,26.41,26.41,0,0,1,.87,3.25l.77,3.28c.19,1.09.32,2.2.48,3.3l.24,1.66.11.83,0,.83.15,3.33c0,.55.08,1.11.06,1.66L354,98.53l-.16,3.32c-.11,1.1-.31,2.19-.46,3.29a48.2,48.2,0,0,1-1.39,6.5,21.43,21.43,0,0,1-1,3.18L349.84,118l-1.48,3a23.76,23.76,0,0,1-1.58,3l-1.78,2.9-2,2.78a29.06,29.06,0,0,1-2.2,2.69c-.78.86-1.48,1.79-2.33,2.61a88.2,88.2,0,0,1-10.87,9.4,163.86,163.86,0,0,1-26.08,14.91C283,168,263.22,175.06,244.42,184c-4.71,2.2-9.32,4.58-13.87,7.05-2.23,1.31-4.52,2.52-6.68,3.91l-3.28,2-3.18,2.16a98,98,0,0,0-22.16,20.34,88,88,0,0,0-8.14,12.13,63.12,63.12,0,0,0-5.42,13.29,54.38,54.38,0,0,0-1.91,14A55.06,55.06,0,0,0,181.67,273a101.45,101.45,0,0,0,4.77,13.52c1.86,4.42,3.75,8.83,5.93,13.15a159,159,0,0,0,15.53,24.77,159.23,159.23,0,0,1-14.87-25c-2.05-4.34-3.82-8.77-5.57-13.21a102,102,0,0,1-4.37-13.46A53.71,53.71,0,0,1,181.6,259a52.74,52.74,0,0,1,2.21-13.6,61.9,61.9,0,0,1,5.59-12.79A86.41,86.41,0,0,1,197.65,221a95.59,95.59,0,0,1,22-19.29l3.16-2,3.25-1.93c2.14-1.31,4.43-2.45,6.63-3.69,4.53-2.33,9.11-4.58,13.82-6.66,18.76-8.43,38.65-15,57.75-23.58a171.77,171.77,0,0,0,27.49-15,94.8,94.8,0,0,0,11.95-9.89c1-.87,1.75-1.87,2.64-2.8a32.33,32.33,0,0,0,2.48-2.91l2.34-3,2.06-3.19a26.49,26.49,0,0,0,1.85-3.28l1.73-3.33,1.37-3.47a25.91,25.91,0,0,0,1.22-3.5,51.25,51.25,0,0,0,1.73-7.17c.2-1.21.46-2.42.61-3.64L362,99Z"/></g></g></svg>