<svg xmlns="http://www.w3.org/2000/svg" xmlns:xlink="http://www.w3.org/1999/xlink" viewBox="0 0 270 270.22"><defs><style>.cls-1{fill:url(#名称未設定グラデーション_229);}.cls-2{fill:#ea5e79;}.cls-3{fill:#fff;}.cls-4{fill:#69adc6;}.cls-5{fill:#06408e;}</style><linearGradient id="名称未設定グラデーション_229" x1="135" x2="135" y2="270" gradientUnits="userSpaceOnUse"><stop offset="0" stop-color="#749ac1" stop-opacity="0.3"/><stop offset="0.48" stop-color="#749ac1" stop-opacity="0.29"/><stop offset="0.67" stop-color="#749ac1" stop-opacity="0.25"/><stop offset="0.8" stop-color="#749ac1" stop-opacity="0.19"/><stop offset="0.91" stop-color="#749ac1" stop-opacity="0.1"/><stop offset="1" stop-color="#749ac1" stop-opacity="0"/></linearGradient></defs><title>app_01</title><g id="レイヤー_2" data-name="レイヤー 2"><g id="応用例_2" data-name="応用例ｲﾗｽﾄ2"><circle class="cls-1" cx="135" cy="135" r="135"/><path class="cls-2" d="M251.19,5.82a39.4,39.4,0,0,0-46.06,63.64L192.84,101l22.51-25.24A39.4,39.4,0,0,0,251.19,5.82Z"/><circle class="cls-3" cx="212.14" cy="59.64" r="1.57"/><circle class="cls-3" cx="219.37" cy="59.64" r="1.57"/><path class="cls-3" d="M220,62.09a1.26,1.26,0,1,0,1.26,1.25A1.25,1.25,0,0,0,220,62.09Z"/><circle class="cls-3" cx="222.17" cy="17.64" r="1.57"/><path class="cls-3" d="M225.82,17.12a1.26,1.26,0,1,0-1.25-1.26A1.26,1.26,0,0,0,225.82,17.12Z"/><path class="cls-3" d="M230.6,54.46a19.79,19.79,0,0,0,7.63-1.52.76.76,0,0,1,1,.4,9.33,9.33,0,0,1,.67,2.35,1.59,1.59,0,0,0,1.56,1.38h0a1.57,1.57,0,0,0,1.55-1.8,12.39,12.39,0,0,0-1.08-3.58.73.73,0,0,1,.25-.91,19.86,19.86,0,0,0,2.2-1.8.75.75,0,0,1,1.18.19,16.81,16.81,0,0,1,1.91,6.48,1.57,1.57,0,0,0,2.17,1.3,1.6,1.6,0,0,0,.95-1.64,20,20,0,0,0-2.41-7.89,3.47,3.47,0,0,1,0-3.35,16.65,16.65,0,0,0,.88-1.8,19.47,19.47,0,0,0,1-3.13,20.31,20.31,0,0,0,.56-4.71A20,20,0,0,0,244.44,20c-.25-.24-.5-.47-.76-.69a1.59,1.59,0,0,0-2.56.74c-.1.32-.19.66-.27,1a19.94,19.94,0,0,0,4.45,18,2.7,2.7,0,0,1,.42,3l-.19.36a.74.74,0,0,1-1.17.2A20,20,0,0,0,238,38.46a2.14,2.14,0,0,1-1.36-2V35.9a2.23,2.23,0,0,1,.69-1.57,2.19,2.19,0,1,0-2.92.16,1.3,1.3,0,0,1,.51,1v.41a1.33,1.33,0,0,1-1.52,1.33,19.7,19.7,0,0,0-5.6,0,1.33,1.33,0,0,1-1.52-1.33v-.41a1.3,1.3,0,0,1,.51-1,2.2,2.2,0,1,0-2.92-.16,2.23,2.23,0,0,1,.69,1.57v.59a2.14,2.14,0,0,1-1.36,2,20,20,0,0,0-6.36,4.06.74.74,0,0,1-1.17-.2l-.19-.36a2.7,2.7,0,0,1,.42-3,19.94,19.94,0,0,0,4.45-18c-.08-.34-.17-.68-.27-1a1.59,1.59,0,0,0-2.56-.74c-.26.22-.51.45-.76.69a20,20,0,0,0-6.19,14.47,20.31,20.31,0,0,0,.56,4.71,19.47,19.47,0,0,0,1,3.13,16.65,16.65,0,0,0,.88,1.8,3.47,3.47,0,0,1,0,3.35,20,20,0,0,0-2.41,7.89,1.6,1.6,0,0,0,1,1.64,1.57,1.57,0,0,0,2.17-1.3,16.81,16.81,0,0,1,1.91-6.48.75.75,0,0,1,1.18-.19,19.86,19.86,0,0,0,2.2,1.8.74.74,0,0,1,.25.91,12.39,12.39,0,0,0-1.08,3.58,1.57,1.57,0,0,0,1.55,1.8h0a1.59,1.59,0,0,0,1.56-1.38,9.33,9.33,0,0,1,.67-2.35.76.76,0,0,1,1-.4A19.79,19.79,0,0,0,230.6,54.46Z"/><circle class="cls-3" cx="249.06" cy="59.64" r="1.57"/><circle class="cls-3" cx="241.83" cy="59.64" r="1.57"/><path class="cls-3" d="M241.21,62.09A1.26,1.26,0,1,1,240,63.34,1.25,1.25,0,0,1,241.21,62.09Z"/><circle class="cls-3" cx="239.03" cy="17.64" r="1.57"/><path class="cls-3" d="M235.38,17.12a1.26,1.26,0,1,1,1.25-1.26A1.26,1.26,0,0,1,235.38,17.12Z"/><path class="cls-4" d="M237.61,136v17.11H199.83c4.41-.75,8-2.91,13.62-4.31,4.92-1.23,11.55-1.64,15.53-5.51,5.07-4.94,8.63-6.13,8.63-7.29,0-1.31-8.07,2-11.13.73-8-3.25-13-3.24-18.7-3.25-4.35,0-5.08-3.31-14.18-2.5-4.89.44-8.88,4.81-8.88,10.73,0,5.66,2.86,10.34,8.79,11.4h-12l3.13,19.26H174.21V138.14H126v22.4h-6.23l-1.45-30.46,6.34-19.92h-8l-.24-26.64h3l1.64-13h-7.13V51.23h-1V28.7h1V26.19h-1V25h1V22h-1V20.81h-2.64V22h-1v3h1v1.2h-1V28.7h1V51.23h-1V70.48h-7.13l1.64,13h3l-.24,26.64h-8l6.34,19.92-1.45,30.46H75C63.14,140.81,55.23,120.09,51.24,94.3H17.57A176.63,176.63,0,0,1,.62,148.21a135,135,0,1,0,259.1-64.73H237.61Z"/><path class="cls-5" d="M225,235.82a134.87,134.87,0,0,0,42.09-72.7H225v31.39l-8.24-5.58.49-3.92-6.09,2.93h-96.9L108.19,185l.49,3.92L98.22,196,77.57,184.48V171.26H99.78L77.57,158.84V145.63H99.78L62.53,124.8V115H61.45V97H59.18v18H58.1v9.84L20.85,145.63H43.06v13.21L27.57,167.5v-9.89H1.86A134.31,134.31,0,0,0,27.57,217V196.89H43.06v13.22l-14.53,8.12q1.71,2.19,3.5,4.29h11v7.77h-3.9a134.89,134.89,0,0,0,59.61,35v-35H77.57v-7.77H99.78L77.57,210.11V196.89H96.93l-9.1,6.17H84.92l.93,1.78V206l4.84,3.86h20.56l-.1,1.88h.69v1.82a1.19,1.19,0,0,0,1.19,1.2h.49v.93l.76.79h.52v1.88l.25.28h-.9l-2.89,3.88h4.06v46.25A136,136,0,0,0,135,270.22q4,0,7.87-.23V222.55h12.51v3.11a7.72,7.72,0,0,0-5.29,7.33v16.33a7.73,7.73,0,0,0,4.54,7v2.47h16.21v-2.47a7.74,7.74,0,0,0,4.53-7V233a7.72,7.72,0,0,0-5.29-7.33v-3.11h12.51v39a134.67,134.67,0,0,0,27.55-14.2V222.54h4.06l-2.89-3.88h-.9l.25-.28V216.5h.52l.76-.79v-.93h.49a1.2,1.2,0,0,0,1.2-1.2v-1.82h.68l-.09-1.88H225Zm-182-51.34-15.49,8.65V171.26H43.06Z"/></g></g></svg>