<svg xmlns="http://www.w3.org/2000/svg" xmlns:xlink="http://www.w3.org/1999/xlink" viewBox="0 0 270 270.45"><defs><style>.cls-1{fill:url(#名称未設定グラデーション_229);}.cls-2{fill:#69adc6;}.cls-3{fill:#ea5e79;}.cls-4{fill:#fff;}.cls-5{fill:#06408e;}</style><linearGradient id="名称未設定グラデーション_229" x1="135" x2="135" y2="270" gradientUnits="userSpaceOnUse"><stop offset="0" stop-color="#749ac1" stop-opacity="0.3"/><stop offset="0.48" stop-color="#749ac1" stop-opacity="0.29"/><stop offset="0.67" stop-color="#749ac1" stop-opacity="0.25"/><stop offset="0.8" stop-color="#749ac1" stop-opacity="0.19"/><stop offset="0.91" stop-color="#749ac1" stop-opacity="0.1"/><stop offset="1" stop-color="#749ac1" stop-opacity="0"/></linearGradient></defs><title>app_02</title><g id="レイヤー_2" data-name="レイヤー 2"><g id="応用例_2" data-name="応用例ｲﾗｽﾄ2"><circle class="cls-1" cx="135" cy="135" r="135"/><path class="cls-2" d="M266.07,167.88l-50.73-35.42c-10.75-7.51-31.53-7.51-42.28,0L126.43,165c-6.38,4.45-16.3,6.26-25.55,5.43L90.66,141.05c.87-.34,1.74-.69,2.59-1.07a9.12,9.12,0,0,0,.36,8.58A9.55,9.55,0,0,0,106.52,152,9.18,9.18,0,0,0,110,139.28a9.49,9.49,0,0,0-7.41-4.6,53,53,0,0,0,12-11.82,9.24,9.24,0,0,0,4.69,7.27,9.53,9.53,0,0,0,12.9-3.39,9.18,9.18,0,0,0-3.45-12.67,9.62,9.62,0,0,0-8.74-.36,51.13,51.13,0,0,0,4.41-16.1,9.48,9.48,0,0,0,17.19-5.31A9.36,9.36,0,0,0,132.16,83a9.46,9.46,0,0,0-7.74,4A51.26,51.26,0,0,0,120,70.89a9.56,9.56,0,0,0,8.74-.36,9.17,9.17,0,0,0,3.45-12.66,9.53,9.53,0,0,0-12.9-3.4,9.26,9.26,0,0,0-4.69,7.28,52.77,52.77,0,0,0-12-11.82,9.49,9.49,0,0,0,7.41-4.6,9.18,9.18,0,0,0-3.46-12.67,9.55,9.55,0,0,0-12.91,3.39,9.1,9.1,0,0,0-.36,8.57A53.93,53.93,0,0,0,76.84,40.3a9.2,9.2,0,0,0,4-7.6A9.45,9.45,0,0,0,62,32.7a9.2,9.2,0,0,0,4,7.6,53.93,53.93,0,0,0-16.41,4.32,9.1,9.1,0,0,0-.37-8.57,9.25,9.25,0,0,0-2.5-2.77A136.43,136.43,0,0,0,33.59,46.35a9.55,9.55,0,0,0,6.71,3.58,53,53,0,0,0-12,11.82,9.22,9.22,0,0,0-2.52-5.58,135.15,135.15,0,0,0-9.59,15.21,9.62,9.62,0,0,0,6.71-.49A51.25,51.25,0,0,0,18.45,87a9.48,9.48,0,0,0-7.74-4h-.16A134.77,134.77,0,0,0,4.83,99.56a9.55,9.55,0,0,0,13.62-2,51.11,51.11,0,0,0,4.4,16.1,9.6,9.6,0,0,0-8.73.36,9.19,9.19,0,0,0-3.46,12.67,9.55,9.55,0,0,0,12.91,3.39,9.23,9.23,0,0,0,4.68-7.27,53.22,53.22,0,0,0,12,11.82,9.47,9.47,0,0,0-7.41,4.6,9,9,0,0,0-1.22,3.85,33.11,33.11,0,0,0-13.87,5.09l-15.72,11a134.91,134.91,0,0,0,45.36,79H222.56A135,135,0,0,0,266.07,167.88ZM45,49.44l3.43,5.83A44.13,44.13,0,0,0,33.7,69.69l-5.94-3.37A51.06,51.06,0,0,1,45,49.44Zm4.52,78.05a42.06,42.06,0,0,1-13.9-13.64l32.48-18.4-.39,1.12ZM64,107l-8.21,23.61a40.18,40.18,0,0,1-4.47-2.06Zm3.33-13.64L34.49,112a40.35,40.35,0,0,1-5.08-18.63Zm-38-2.13A40.43,40.43,0,0,1,34.49,72.6L67.37,91.24Zm6.17-20.48a42.06,42.06,0,0,1,13.9-13.64l19,32.26Zm-8.91-2.58,5.93,3.36a42.6,42.6,0,0,0-5.37,19.7H20.37A49.08,49.08,0,0,1,26.67,68.18Zm-6.3,25.19h6.86a42.63,42.63,0,0,0,5.37,19.7l-5.93,3.36A49.08,49.08,0,0,1,20.37,93.37Zm7.39,24.91,5.94-3.36a44.13,44.13,0,0,0,14.69,14.42L45,135.17A51,51,0,0,1,27.76,118.28Zm23.36,25.9L50.5,144a9.07,9.07,0,0,0-.88-4c.85.38,1.71.73,2.59,1.07Zm-4.27-8,3.42-5.82a45.6,45.6,0,0,0,4.86,2.24L52.91,139A50.39,50.39,0,0,1,46.85,136.23Zm15.4,13.51-2.18-1.52a26.68,26.68,0,0,0-5.85-3l1.07-3.07A54.27,54.27,0,0,0,66,144.31,9.26,9.26,0,0,0,62.25,149.74Zm8.09-7.32A51.49,51.49,0,0,1,56,140.09l2.21-6.36a44.68,44.68,0,0,0,12.14,2Zm0-8.87a42.63,42.63,0,0,1-11.43-1.84L70.34,98.8Zm0-45.23-19-32.27a42.31,42.31,0,0,1,19-5Zm0-39.4A44.5,44.5,0,0,0,50.27,54.2l-3.42-5.83a51.49,51.49,0,0,1,23.49-6.18ZM90,139l-2.22-6.37a45.44,45.44,0,0,0,4.85-2.24L96,136.23A50.39,50.39,0,0,1,90,139ZM75.5,91.24,108.38,72.6a40.55,40.55,0,0,1,5.08,18.64Zm38,2.13A40.47,40.47,0,0,1,108.38,112L75.5,93.37Zm-39-4,19-32.26a41.93,41.93,0,0,1,13.89,13.64Zm32.87,24.47a41.93,41.93,0,0,1-13.89,13.64L75.2,96.57l-.39-1.12ZM91.51,128.56A39.51,39.51,0,0,1,87,130.62L78.83,107Zm6.39,6.61-3.42-5.83a44.23,44.23,0,0,0,14.69-14.42l5.93,3.36A51,51,0,0,1,97.9,135.17Zm18.29-18.74-5.93-3.36a42.52,42.52,0,0,0,5.38-19.7h6.86A49.08,49.08,0,0,1,116.19,116.43Zm6.31-25.19h-6.86a42.49,42.49,0,0,0-5.38-19.7l5.93-3.36A49.08,49.08,0,0,1,122.5,91.24Zm-7.4-24.92-5.93,3.37A44.23,44.23,0,0,0,94.48,55.27l3.42-5.83A51.06,51.06,0,0,1,115.1,66.32ZM72.52,42.19A51.53,51.53,0,0,1,96,48.37L92.59,54.2a44.47,44.47,0,0,0-20.07-5.28Zm0,8.87a42.31,42.31,0,0,1,19,5l-19,32.27Zm0,47.74L84,131.71a42.77,42.77,0,0,1-11.44,1.84Zm0,36.89a44.55,44.55,0,0,0,12.14-2l2.22,6.36a51.62,51.62,0,0,1-14.36,2.33ZM84.15,165l-7.62-5.33a9.16,9.16,0,0,0,.31-15.39,54.41,54.41,0,0,0,10.74-2.19L97.27,170A32.65,32.65,0,0,1,84.15,165Z"/><path class="cls-3" d="M251.15,6.25a39.39,39.39,0,0,0-46.06,63.64L192.8,101.4l22.51-25.24A39.4,39.4,0,0,0,251.15,6.25Z"/><circle class="cls-4" cx="212.1" cy="60.07" r="1.57"/><circle class="cls-4" cx="219.33" cy="60.07" r="1.57"/><path class="cls-4" d="M220,62.52a1.26,1.26,0,1,0,1.26,1.25A1.25,1.25,0,0,0,220,62.52Z"/><circle class="cls-4" cx="222.13" cy="18.07" r="1.57"/><path class="cls-4" d="M225.78,17.55a1.26,1.26,0,1,0-1.25-1.26A1.26,1.26,0,0,0,225.78,17.55Z"/><path class="cls-4" d="M230.56,54.89a19.79,19.79,0,0,0,7.63-1.52.76.76,0,0,1,1,.4,9.33,9.33,0,0,1,.67,2.35,1.59,1.59,0,0,0,1.56,1.38h0a1.57,1.57,0,0,0,1.55-1.8,12.39,12.39,0,0,0-1.08-3.58.73.73,0,0,1,.25-.91,20,20,0,0,0,2.19-1.8.76.76,0,0,1,1.19.19,16.63,16.63,0,0,1,1.9,6.48,1.58,1.58,0,0,0,2.18,1.3,1.6,1.6,0,0,0,1-1.65,20,20,0,0,0-2.41-7.88,3.47,3.47,0,0,1,0-3.35,16.65,16.65,0,0,0,.88-1.8,19.47,19.47,0,0,0,1-3.13,20.31,20.31,0,0,0,.56-4.71,20,20,0,0,0-6.19-14.47c-.25-.24-.5-.47-.76-.69a1.59,1.59,0,0,0-2.56.74c-.1.32-.19.66-.27,1a19.94,19.94,0,0,0,4.45,18,2.7,2.7,0,0,1,.42,3l-.19.36a.74.74,0,0,1-1.17.2A20,20,0,0,0,238,38.89a2.14,2.14,0,0,1-1.36-2v-.59a2.23,2.23,0,0,1,.69-1.57,2.19,2.19,0,1,0-2.92.16,1.3,1.3,0,0,1,.51,1v.41a1.33,1.33,0,0,1-1.52,1.33,19.7,19.7,0,0,0-5.6,0,1.33,1.33,0,0,1-1.52-1.33v-.41a1.3,1.3,0,0,1,.51-1,2.19,2.19,0,1,0-2.93-.16,2.2,2.2,0,0,1,.7,1.57v.59a2.14,2.14,0,0,1-1.36,2A20,20,0,0,0,216.8,43a.74.74,0,0,1-1.17-.2c-.07-.12-.13-.24-.19-.36a2.7,2.7,0,0,1,.42-3,19.94,19.94,0,0,0,4.45-18c-.08-.34-.17-.68-.27-1a1.59,1.59,0,0,0-2.56-.74c-.26.22-.51.45-.76.69a20,20,0,0,0-6.19,14.47,20.31,20.31,0,0,0,.56,4.71,19.47,19.47,0,0,0,1,3.13,18.67,18.67,0,0,0,.87,1.8,3.44,3.44,0,0,1,0,3.35,20,20,0,0,0-2.41,7.88,1.6,1.6,0,0,0,1,1.65,1.57,1.57,0,0,0,2.17-1.3,16.81,16.81,0,0,1,1.91-6.48.75.75,0,0,1,1.18-.19,21.06,21.06,0,0,0,2.2,1.8.74.74,0,0,1,.25.91,12.39,12.39,0,0,0-1.08,3.58,1.57,1.57,0,0,0,1.55,1.8h0a1.59,1.59,0,0,0,1.56-1.38,9.33,9.33,0,0,1,.67-2.35.76.76,0,0,1,1-.4A19.79,19.79,0,0,0,230.56,54.89Z"/><circle class="cls-4" cx="249.02" cy="60.07" r="1.57"/><circle class="cls-4" cx="241.79" cy="60.07" r="1.57"/><path class="cls-4" d="M241.17,62.52a1.26,1.26,0,1,1-1.26,1.25A1.25,1.25,0,0,1,241.17,62.52Z"/><circle class="cls-4" cx="238.99" cy="18.07" r="1.57"/><path class="cls-4" d="M235.34,17.55a1.26,1.26,0,1,1,1.25-1.26A1.26,1.26,0,0,1,235.34,17.55Z"/><path class="cls-5" d="M233.64,85.72c-19.43,0-25.95,32.49-32.86,66.89-4.88,24.32-11,54.58-21,54.58-8.76,0-13.77-11.53-19.07-23.74-5.84-13.42-12.44-28.63-26.44-28.63-15.76,0-21.78,19.12-28.76,41.25-.84,2.67-1.7,5.38-2.59,8.11-3.38,10.38-9.63,18.23-16.73,21.68l-1.8-4.76H76.44v-4.72h7.5v-8.16h-7.5V181.57h7.92v-6l-6,2.82-33.79-18v-3.1l22.79-4.19L44.53,148.9v-1.24H42.74v12.72L9,178.36l-2.34-1.09c.47,1.44,1,2.88,1.48,4.3h2.75v7c.6,1.42,1.24,2.82,1.89,4.21V181.57H28.39v11H20.88v8.15h7.51v17.52c.62.8,1.25,1.59,1.89,2.38v-19.9h7.5v-8.15h-7.5v-11h9V221.1H30.65a135,135,0,0,0,201,8.61h-1.38a.19.19,0,0,0,0-.08V219.17a9.29,9.29,0,0,0,1.85-1.5,7.87,7.87,0,0,0,.53-.62v11.63c.68-.71,1.35-1.43,2-2.16V213.9a21.66,21.66,0,0,0,1.92-8.32,8.11,8.11,0,0,0,3.68,1.63,14.85,14.85,0,0,0,1.48,2.39h0l0,0,.3.38c.17.2.34.4.52.58a4.17,4.17,0,0,0,.36.37l.56.5.33.28c.3.22.61.43.92.62l.23.11c.22.12.44.22.67.32a134.21,134.21,0,0,0,22.07-52.58C258.77,120.13,250.94,85.72,233.64,85.72ZM57,191.64H49.5v8.16H57v21.3H48V181.57h9Zm17.55,16.58H67v8.16h7.51v4.72H58.89V199.8h7.5v-8.16h-7.5V181.57H74.55Zm29.21,21.49H95.24a41.06,41.06,0,0,0,8.52-9.13Zm16.11,0H105.78V217.43a55,55,0,0,0,4.76-10.66c.89-2.76,1.76-5.5,2.6-8.18,2.26-7.17,4.41-14,6.73-19.67Zm16.11,0H121.89V174.38c3.37-6.92,7.23-11.35,12.35-11.35a9,9,0,0,1,1.74.17Zm16.11,0H138V163.8c5.95,2.52,10,10.9,14.1,20.17Zm16.11,0H154.1V188.59c3.73,8.53,7.88,17.45,14.1,22.55Zm16.11,0h-14.1v-17.1a17.36,17.36,0,0,0,9.54,2.79,13.2,13.2,0,0,0,4.56-.79Zm16.11,0h-14.1v-16c6.23-3.5,10.57-12.13,14.1-23.66Zm16.11-54.37a22.34,22.34,0,0,0-.16,2.62,23.58,23.58,0,0,0,.16,2.55v1.16c-4.49,2-7.78,8.37-7.78,16s3.29,14,7.78,16v16.13h-14.1V182.85c2.23-8.62,4.19-18.39,6.24-28.59,2.27-11.28,4.77-23.72,7.86-34.36Zm2,54.37v-15.4a14.61,14.61,0,0,0,1.39,2.24h0l0,.05.3.37c.17.2.34.4.52.59l.36.36c.18.18.37.35.56.51s.22.19.33.27a8.73,8.73,0,0,0,.92.62l.24.12a7,7,0,0,0,.78.37l.35.12c.24.08.49.15.74.21l.34.07a6.59,6.59,0,0,0,1.09.1h0v9.33s0,.06,0,.08Zm14.09-64.16a8.12,8.12,0,0,0-6.14-3.23c-3.23,0-6.1,2.35-8,6V113.5c3.72-10.83,8.25-18.67,14.09-19.48Zm18.13-40.78c3.51,12.21,6.64,26.2,9.35,38.33.44,2,.88,3.93,1.31,5.88l-.09-.08c-.11-.1-.23-.19-.35-.28a4.13,4.13,0,0,0-.42-.31l-.35-.23-.45-.26a2.92,2.92,0,0,0-.36-.17,4.16,4.16,0,0,0-.48-.22h0a5.79,5.79,0,0,0-.8-.27c-.91-5.55-3.75-9.91-7.34-11.31Zm-2,30.64-.45,0c-5.59,0-10.12,7-10.12,15.63a24,24,0,0,0,.28,3.65l-.36.18-.13-.08-.36-.17c-.16-.07-.31-.15-.48-.21h0a7.46,7.46,0,0,0-.8-.26,20.65,20.65,0,0,0-1.65-5.38V94.05c5.18,1.14,9.89,11,14.09,24.08Z"/></g></g></svg>