<svg xmlns="http://www.w3.org/2000/svg" xmlns:xlink="http://www.w3.org/1999/xlink" viewBox="0 0 270 270"><defs><style>.cls-1{fill:url(#名称未設定グラデーション_229);}.cls-2,.cls-6{fill:#fff;}.cls-2{opacity:0.6;}.cls-3{fill:#69adc6;}.cls-4{fill:#06408e;}.cls-5{fill:#ea5e79;}</style><linearGradient id="名称未設定グラデーション_229" x1="135" x2="135" y2="270" gradientUnits="userSpaceOnUse"><stop offset="0" stop-color="#749ac1" stop-opacity="0.3"/><stop offset="0.48" stop-color="#749ac1" stop-opacity="0.29"/><stop offset="0.67" stop-color="#749ac1" stop-opacity="0.25"/><stop offset="0.8" stop-color="#749ac1" stop-opacity="0.19"/><stop offset="0.91" stop-color="#749ac1" stop-opacity="0.1"/><stop offset="1" stop-color="#749ac1" stop-opacity="0"/></linearGradient></defs><title>app_03</title><g id="レイヤー_2" data-name="レイヤー 2"><g id="応用例_2" data-name="応用例ｲﾗｽﾄ2"><circle class="cls-1" cx="135" cy="135" r="135"/><rect class="cls-2" x="106.32" y="20.03" width="57.78" height="103.9"/><path class="cls-3" d="M166.8,158.49V21.7a3.41,3.41,0,0,0-3.41-3.41H106.61a3.41,3.41,0,0,0-3.41,3.41V158.49H92.52a3.41,3.41,0,0,0-3.41,3.41h0a3.41,3.41,0,0,0,3.41,3.41h85a3.41,3.41,0,0,0,3.41-3.41h0a3.41,3.41,0,0,0-3.41-3.41ZM108.65,23.65h52.7v96.26h-52.7Z"/><rect class="cls-4" x="125.17" y="32.72" width="30.69" height="2.88" rx="1.31"/><circle class="cls-3" cx="117.95" cy="49.2" r="4.34"/><rect class="cls-3" x="125.17" y="47.76" width="30.69" height="2.88" rx="1.31"/><circle class="cls-3" cx="117.95" cy="64.23" r="4.34"/><rect class="cls-3" x="125.17" y="62.8" width="30.69" height="2.88" rx="1.31"/><circle class="cls-3" cx="117.95" cy="79.27" r="4.34"/><rect class="cls-3" x="125.17" y="77.83" width="30.69" height="2.88" rx="1.31"/><circle class="cls-3" cx="117.95" cy="94.31" r="4.34"/><rect class="cls-3" x="125.17" y="92.87" width="30.69" height="2.88" rx="1.31"/><path class="cls-4" d="M118,29.82a4.34,4.34,0,1,0,4.35,4.34A4.34,4.34,0,0,0,118,29.82Zm.65,7.24h-1.29V33.57h1.29ZM118,32.8a.77.77,0,1,1,.78-.77A.78.78,0,0,1,118,32.8Z"/><path class="cls-5" d="M251.19,5.82a39.4,39.4,0,0,0-46.06,63.64L192.84,101l22.51-25.24A39.4,39.4,0,0,0,251.19,5.82Z"/><circle class="cls-6" cx="212.14" cy="59.64" r="1.57"/><circle class="cls-6" cx="219.37" cy="59.64" r="1.57"/><path class="cls-6" d="M220,62.09a1.26,1.26,0,1,0,1.26,1.25A1.25,1.25,0,0,0,220,62.09Z"/><circle class="cls-6" cx="222.17" cy="17.64" r="1.57"/><path class="cls-6" d="M225.82,17.12a1.26,1.26,0,1,0-1.25-1.26A1.26,1.26,0,0,0,225.82,17.12Z"/><path class="cls-6" d="M230.6,54.46a19.79,19.79,0,0,0,7.63-1.52.76.76,0,0,1,1,.4,9.33,9.33,0,0,1,.67,2.35,1.59,1.59,0,0,0,1.56,1.38h0a1.57,1.57,0,0,0,1.55-1.8,12.39,12.39,0,0,0-1.08-3.58.73.73,0,0,1,.25-.91,19.86,19.86,0,0,0,2.2-1.8.75.75,0,0,1,1.18.19,16.81,16.81,0,0,1,1.91,6.48,1.57,1.57,0,0,0,2.17,1.3,1.6,1.6,0,0,0,.95-1.64,20,20,0,0,0-2.41-7.89,3.47,3.47,0,0,1,0-3.35,16.65,16.65,0,0,0,.88-1.8,19.47,19.47,0,0,0,1-3.13,20.31,20.31,0,0,0,.56-4.71A20,20,0,0,0,244.44,20c-.25-.24-.5-.47-.76-.69a1.59,1.59,0,0,0-2.56.74c-.1.32-.19.66-.27,1a19.94,19.94,0,0,0,4.45,18,2.7,2.7,0,0,1,.42,3l-.19.36a.74.74,0,0,1-1.17.2A20,20,0,0,0,238,38.46a2.14,2.14,0,0,1-1.36-2V35.9a2.23,2.23,0,0,1,.69-1.57,2.19,2.19,0,1,0-2.92.16,1.3,1.3,0,0,1,.51,1v.41a1.33,1.33,0,0,1-1.52,1.33,19.7,19.7,0,0,0-5.6,0,1.33,1.33,0,0,1-1.52-1.33v-.41a1.3,1.3,0,0,1,.51-1,2.2,2.2,0,1,0-2.92-.16,2.23,2.23,0,0,1,.69,1.57v.59a2.14,2.14,0,0,1-1.36,2,20,20,0,0,0-6.36,4.06.74.74,0,0,1-1.17-.2l-.19-.36a2.7,2.7,0,0,1,.42-3,19.94,19.94,0,0,0,4.45-18c-.08-.34-.17-.68-.27-1a1.59,1.59,0,0,0-2.56-.74c-.26.22-.51.45-.76.69a20,20,0,0,0-6.19,14.47,20.31,20.31,0,0,0,.56,4.71,19.47,19.47,0,0,0,1,3.13,16.65,16.65,0,0,0,.88,1.8,3.47,3.47,0,0,1,0,3.35,20,20,0,0,0-2.41,7.89,1.6,1.6,0,0,0,1,1.64,1.57,1.57,0,0,0,2.17-1.3,16.81,16.81,0,0,1,1.91-6.48.75.75,0,0,1,1.18-.19,19.86,19.86,0,0,0,2.2,1.8.74.74,0,0,1,.25.91,12.39,12.39,0,0,0-1.08,3.58,1.57,1.57,0,0,0,1.55,1.8h0a1.59,1.59,0,0,0,1.56-1.38,9.33,9.33,0,0,1,.67-2.35.76.76,0,0,1,1-.4A19.79,19.79,0,0,0,230.6,54.46Z"/><circle class="cls-6" cx="249.06" cy="59.64" r="1.57"/><circle class="cls-6" cx="241.83" cy="59.64" r="1.57"/><path class="cls-6" d="M241.21,62.09A1.26,1.26,0,1,1,240,63.34,1.25,1.25,0,0,1,241.21,62.09Z"/><circle class="cls-6" cx="239.03" cy="17.64" r="1.57"/><path class="cls-6" d="M235.38,17.12a1.26,1.26,0,1,1,1.25-1.26A1.26,1.26,0,0,1,235.38,17.12Z"/><path class="cls-3" d="M52.62,155.4H75.27L40,126.89,4.66,155.4H26.59c.08,33.3,60.41,34,60.41,67.32,0,13.27-9.84,21.14-21.69,27.92A134.32,134.32,0,0,0,135,270c1.31,0,2.62,0,3.92-.06C153,253.54,183,247.57,183,222,183,188.71,52.69,188.7,52.62,155.4Z"/><path class="cls-4" d="M183,222.72c0-33.32,60.33-34,60.41-67.32h21.93L230,126.89l-35.3,28.51h22.65C217.31,188.7,87,188.71,87,222c0,25.54,30,31.51,44.08,47.91,1.3,0,2.61.06,3.92.06a134.32,134.32,0,0,0,69.69-19.36C192.84,243.86,183,236,183,222.72Z"/></g></g></svg>