<svg xmlns="http://www.w3.org/2000/svg" viewBox="0 0 180 180"><defs><style>.cls-1{fill:#d7d7cf;}.cls-2{fill:#fff;}</style></defs><title>09_profile_photo</title><g id="レイヤー_2" data-name="レイヤー 2"><g id="メンバー写真"><circle class="cls-1" cx="90" cy="90" r="90"/><circle class="cls-2" cx="62.75" cy="119.57" r="2.32"/><circle class="cls-2" cx="73.42" cy="119.57" r="2.32"/><path class="cls-2" d="M74.35,123.19A1.85,1.85,0,1,0,76.2,125,1.85,1.85,0,0,0,74.35,123.19Z"/><circle class="cls-2" cx="77.56" cy="57.58" r="2.32"/><path class="cls-2" d="M83,56.81A1.85,1.85,0,1,0,81.09,55,1.85,1.85,0,0,0,83,56.81Z"/><path class="cls-2" d="M90,111.93a29.3,29.3,0,0,0,11.26-2.24,1.11,1.11,0,0,1,1.43.58,13.65,13.65,0,0,1,1,3.48,2.34,2.34,0,0,0,2.29,2h0a2.33,2.33,0,0,0,2.3-2.66,18.49,18.49,0,0,0-1.6-5.28,1.07,1.07,0,0,1,.36-1.34,29.67,29.67,0,0,0,3.25-2.66,1.12,1.12,0,0,1,1.75.29,24.74,24.74,0,0,1,2.81,9.56,2.32,2.32,0,0,0,3.21,1.91,2.36,2.36,0,0,0,1.39-2.42,29.19,29.19,0,0,0-3.55-11.64,5.12,5.12,0,0,1,0-5,29.35,29.35,0,0,0,2.82-7.27A29.43,29.43,0,0,0,110.42,61c-.36-.35-.73-.69-1.11-1a2.34,2.34,0,0,0-3.78,1.08c-.15.48-.28,1-.41,1.48a29.5,29.5,0,0,0,6.58,26.5,4,4,0,0,1,.61,4.42L112,94a1.11,1.11,0,0,1-1.74.3,29.79,29.79,0,0,0-9.38-6,3.14,3.14,0,0,1-2-2.9v-.87a3.34,3.34,0,0,1,1-2.33,3.24,3.24,0,1,0-4.31.25,1.88,1.88,0,0,1,.75,1.48v.59a2,2,0,0,1-2.25,2,29.55,29.55,0,0,0-8.26,0,2,2,0,0,1-2.25-2v-.59a1.88,1.88,0,0,1,.75-1.48,3.23,3.23,0,1,0-4.31-.25,3.34,3.34,0,0,1,1,2.33v.87a3.14,3.14,0,0,1-2,2.9,29.79,29.79,0,0,0-9.38,6A1.11,1.11,0,0,1,68,94l-.27-.53a4,4,0,0,1,.61-4.42,29.5,29.5,0,0,0,6.58-26.5c-.13-.5-.26-1-.41-1.48A2.34,2.34,0,0,0,70.69,60c-.38.32-.75.66-1.11,1a29.43,29.43,0,0,0-8.31,28.31,29.35,29.35,0,0,0,2.82,7.27,5.12,5.12,0,0,1,0,5,29.19,29.19,0,0,0-3.55,11.64,2.36,2.36,0,0,0,1.39,2.42,2.32,2.32,0,0,0,3.21-1.91A24.74,24.74,0,0,1,68,104.13a1.12,1.12,0,0,1,1.75-.29A29.67,29.67,0,0,0,73,106.5a1.07,1.07,0,0,1,.36,1.34,18.49,18.49,0,0,0-1.6,5.28,2.33,2.33,0,0,0,2.3,2.66h0a2.34,2.34,0,0,0,2.29-2,13.65,13.65,0,0,1,1-3.48,1.11,1.11,0,0,1,1.43-.58A29.3,29.3,0,0,0,90,111.93Z"/><circle class="cls-2" cx="117.25" cy="119.57" r="2.32"/><circle class="cls-2" cx="106.58" cy="119.57" r="2.32"/><path class="cls-2" d="M105.65,123.19A1.85,1.85,0,1,1,103.8,125,1.85,1.85,0,0,1,105.65,123.19Z"/><circle class="cls-2" cx="102.44" cy="57.58" r="2.32"/><path class="cls-2" d="M97.05,56.81A1.85,1.85,0,1,1,98.91,55,1.85,1.85,0,0,1,97.05,56.81Z"/></g></g></svg>