<svg xmlns="http://www.w3.org/2000/svg" viewBox="0 0 230.39 100.09"><defs><style>.cls-1{fill:none;}.cls-2{fill:#ea5e79;}</style></defs><title>CRAB_logo_rect</title><g id="レイヤー_2" data-name="レイヤー 2"><g id="背景"><rect class="cls-1" width="230.39" height="100.09"/><circle class="cls-2" cx="22.4" cy="73.69" r="1.85"/><circle class="cls-2" cx="30.93" cy="73.69" r="1.85"/><path class="cls-2" d="M31.67,76.58a1.48,1.48,0,1,0,1.49,1.48A1.48,1.48,0,0,0,31.67,76.58Z"/><circle class="cls-2" cx="34.24" cy="24.13" r="1.85"/><path class="cls-2" d="M38.55,23.51A1.48,1.48,0,1,0,37.07,22,1.48,1.48,0,0,0,38.55,23.51Z"/><path class="cls-2" d="M44.19,67.58a23.46,23.46,0,0,0,9-1.79.89.89,0,0,1,1.14.46,11,11,0,0,1,.8,2.78A1.86,1.86,0,0,0,57,70.65h0a1.85,1.85,0,0,0,1.83-2.12,14.36,14.36,0,0,0-1.28-4.22.86.86,0,0,1,.29-1.07,24.14,24.14,0,0,0,2.6-2.13.9.9,0,0,1,1.4.23A19.8,19.8,0,0,1,64.05,69a1.85,1.85,0,0,0,2.57,1.52,1.88,1.88,0,0,0,1.12-1.94,23.54,23.54,0,0,0-2.84-9.3,4.1,4.1,0,0,1,0-4,21.92,21.92,0,0,0,1-2.12,23.83,23.83,0,0,0,1.89-9.25,23.52,23.52,0,0,0-7.32-17.07c-.28-.28-.58-.55-.88-.81a1.88,1.88,0,0,0-3,.86c-.12.39-.22.79-.32,1.18a23.79,23.79,0,0,0-.67,5.57A23.55,23.55,0,0,0,61.53,49.3a3.17,3.17,0,0,1,.5,3.53c-.08.14-.15.28-.22.42a.89.89,0,0,1-1.39.24,23.81,23.81,0,0,0-7.5-4.8,2.51,2.51,0,0,1-1.61-2.32v-.69a2.68,2.68,0,0,1,.82-1.86,2.58,2.58,0,1,0-3.44.2,1.53,1.53,0,0,1,.6,1.18v.47a1.59,1.59,0,0,1-1.8,1.58,22.88,22.88,0,0,0-6.61,0,1.58,1.58,0,0,1-1.79-1.58V45.2a1.5,1.5,0,0,1,.6-1.18,2.59,2.59,0,1,0-4.2-2,2.56,2.56,0,0,0,.75,1.83,2.64,2.64,0,0,1,.82,1.86v.69a2.5,2.5,0,0,1-1.6,2.32,23.7,23.7,0,0,0-7.5,4.8.89.89,0,0,1-1.39-.24c-.08-.14-.15-.28-.22-.42a3.19,3.19,0,0,1,.49-3.53,23.55,23.55,0,0,0,5.92-15.63,23.79,23.79,0,0,0-.66-5.57c-.1-.39-.21-.79-.32-1.18a1.88,1.88,0,0,0-3-.86c-.3.26-.6.53-.89.81a23.55,23.55,0,0,0-7.31,17.07,23.19,23.19,0,0,0,.67,5.56,22.79,22.79,0,0,0,1.22,3.69,21.85,21.85,0,0,0,1,2.12,4.07,4.07,0,0,1,0,4,23.38,23.38,0,0,0-2.84,9.3,1.88,1.88,0,0,0,1.12,1.94A1.85,1.85,0,0,0,24.32,69a19.81,19.81,0,0,1,2.25-7.65.89.89,0,0,1,1.4-.23,24,24,0,0,0,2.59,2.13.85.85,0,0,1,.3,1.07,14.36,14.36,0,0,0-1.28,4.22,1.85,1.85,0,0,0,1.83,2.12h0A1.87,1.87,0,0,0,33.25,69,11,11,0,0,1,34,66.25a.9.9,0,0,1,1.15-.46A23.42,23.42,0,0,0,44.19,67.58Z"/><circle class="cls-2" cx="65.97" cy="73.69" r="1.85"/><circle class="cls-2" cx="57.44" cy="73.69" r="1.85"/><path class="cls-2" d="M56.7,76.58a1.48,1.48,0,1,1-1.48,1.48A1.48,1.48,0,0,1,56.7,76.58Z"/><circle class="cls-2" cx="54.13" cy="24.13" r="1.85"/><path class="cls-2" d="M49.83,23.51A1.48,1.48,0,1,1,51.31,22,1.49,1.49,0,0,1,49.83,23.51Z"/><path class="cls-2" d="M102.42,40.5H94.9a8.77,8.77,0,0,0-8.76,8.77V62a8.77,8.77,0,0,0,8.76,8.77h7.52A8.78,8.78,0,0,0,111.19,62V59.44h-2.68A2.56,2.56,0,0,0,106,62a3.66,3.66,0,0,1-3.65,3.65H95A3.65,3.65,0,0,1,91.38,62V49.27A3.65,3.65,0,0,1,95,45.62h7.27A3.66,3.66,0,0,1,106,49.27a2.56,2.56,0,0,0,2.56,2.56h2.68V49.27A8.78,8.78,0,0,0,102.42,40.5Z"/><path class="cls-2" d="M143.54,50.89V49.27a8.77,8.77,0,0,0-8.77-8.77H121V68a2.77,2.77,0,0,0,2.78,2.78h2.46V45.62h8.7a3.64,3.64,0,0,1,3.65,3.65v1.62a3.64,3.64,0,0,1-3.65,3.65h-7L138.2,69.62a2.66,2.66,0,0,0,2.19,1.15h4.68l-8.2-11.86A8,8,0,0,0,143.54,50.89Z"/><path class="cls-2" d="M151.15,70.77h3.91a2.64,2.64,0,0,0,2.44-1.62l7.6-18.39,7.6,18.39a2.67,2.67,0,0,0,2.45,1.62h3.91L166.7,41.32a1.73,1.73,0,0,0-3.19,0Z"/><path class="cls-2" d="M206.49,55.09a8.33,8.33,0,0,0,2.27-5.67,8.61,8.61,0,0,0-2.52-6.18,9.2,9.2,0,0,0-6.5-2.74H186.41V68a2.78,2.78,0,0,0,2.78,2.78h11.88a8.85,8.85,0,0,0,8.77-8.93A8.59,8.59,0,0,0,206.49,55.09Zm-6.37-1.64H195v1.4A2.86,2.86,0,0,0,198,57.67h3.3A3.82,3.82,0,0,1,203.92,59a4,4,0,0,1-2.72,6.71h-9.89V45.54h8.9a3.59,3.59,0,0,1,2.6,1.1,5,5,0,0,1,1.05,3.23A3.56,3.56,0,0,1,200.12,53.45Z"/></g></g></svg>